solid CATIA STL
  facet normal  0.000000e+000  1.000000e+000  0.000000e+000
    outer loop
      vertex -4.350000e+001 -3.100000e+001  2.946617e+002
      vertex  4.350000e+001 -3.100000e+001  2.946617e+002
      vertex -4.350000e+001 -3.100000e+001  2.479963e+002
    endloop
  endfacet
  facet normal  0.000000e+000  1.000000e+000  0.000000e+000
    outer loop
      vertex -4.350000e+001 -3.100000e+001  2.479963e+002
      vertex  4.350000e+001 -3.100000e+001  2.946617e+002
      vertex  4.350000e+001 -3.100000e+001  2.479963e+002
    endloop
  endfacet
  facet normal  0.000000e+000  1.000000e+000  0.000000e+000
    outer loop
      vertex -4.350000e+001 -3.100000e+001  2.479963e+002
      vertex  4.350000e+001 -3.100000e+001  2.479963e+002
      vertex -3.316548e+001 -3.100000e+001  2.376618e+002
    endloop
  endfacet
  facet normal  0.000000e+000  1.000000e+000  0.000000e+000
    outer loop
      vertex -3.316548e+001 -3.100000e+001  2.376618e+002
      vertex  4.350000e+001 -3.100000e+001  2.479963e+002
      vertex  3.316548e+001 -3.100000e+001  2.376618e+002
    endloop
  endfacet
  facet normal  0.000000e+000  1.000000e+000  0.000000e+000
    outer loop
      vertex -3.585786e+001 -3.100000e+001  2.311618e+002
      vertex -3.440812e+001 -3.100000e+001  2.346618e+002
      vertex  3.585786e+001 -3.100000e+001  2.311618e+002
    endloop
  endfacet
  facet normal  0.000000e+000  9.999999e-001  0.000000e+000
    outer loop
      vertex  3.585786e+001 -3.100000e+001  2.311618e+002
      vertex -3.440812e+001 -3.100000e+001  2.346618e+002
      vertex  3.440812e+001 -3.100000e+001  2.346618e+002
    endloop
  endfacet
  facet normal  -0.000000e+000  1.000000e+000  0.000000e+000
    outer loop
      vertex  3.585786e+001 -3.100000e+001  2.311618e+002
      vertex  3.440812e+001 -3.100000e+001  2.346618e+002
      vertex  5.000000e+001 -3.100000e+001  2.453039e+002
    endloop
  endfacet
  facet normal  0.000000e+000  1.000000e+000  0.000000e+000
    outer loop
      vertex  5.000000e+001 -3.100000e+001  2.453039e+002
      vertex  3.440812e+001 -3.100000e+001  2.346618e+002
      vertex  4.650000e+001 -3.100000e+001  2.467536e+002
    endloop
  endfacet
  facet normal  -0.000000e+000  1.000000e+000  0.000000e+000
    outer loop
      vertex  5.000000e+001 -3.100000e+001  2.453039e+002
      vertex  4.650000e+001 -3.100000e+001  2.467536e+002
      vertex  5.000000e+001 -3.100000e+001  3.011617e+002
    endloop
  endfacet
  facet normal  0.000000e+000  1.000000e+000  0.000000e+000
    outer loop
      vertex  5.000000e+001 -3.100000e+001  3.011617e+002
      vertex  4.650000e+001 -3.100000e+001  2.467536e+002
      vertex  4.650000e+001 -3.100000e+001  2.976617e+002
    endloop
  endfacet
  facet normal  0.000000e+000  1.000000e+000  -0.000000e+000
    outer loop
      vertex  5.000000e+001 -3.100000e+001  3.011617e+002
      vertex  4.650000e+001 -3.100000e+001  2.976617e+002
      vertex -5.000000e+001 -3.100000e+001  3.011617e+002
    endloop
  endfacet
  facet normal  0.000000e+000  1.000000e+000  0.000000e+000
    outer loop
      vertex -5.000000e+001 -3.100000e+001  3.011617e+002
      vertex  4.650000e+001 -3.100000e+001  2.976617e+002
      vertex -4.650000e+001 -3.100000e+001  2.976617e+002
    endloop
  endfacet
  facet normal  0.000000e+000  1.000000e+000  0.000000e+000
    outer loop
      vertex -5.000000e+001 -3.100000e+001  3.011617e+002
      vertex -4.650000e+001 -3.100000e+001  2.976617e+002
      vertex -5.000000e+001 -3.100000e+001  2.453039e+002
    endloop
  endfacet
  facet normal  0.000000e+000  1.000000e+000  0.000000e+000
    outer loop
      vertex -5.000000e+001 -3.100000e+001  2.453039e+002
      vertex -4.650000e+001 -3.100000e+001  2.976617e+002
      vertex -4.650000e+001 -3.100000e+001  2.467536e+002
    endloop
  endfacet
  facet normal  0.000000e+000  1.000000e+000  0.000000e+000
    outer loop
      vertex -5.000000e+001 -3.100000e+001  2.453039e+002
      vertex -4.650000e+001 -3.100000e+001  2.467536e+002
      vertex -3.585786e+001 -3.100000e+001  2.311618e+002
    endloop
  endfacet
  facet normal  0.000000e+000  1.000000e+000  -0.000000e+000
    outer loop
      vertex -3.585786e+001 -3.100000e+001  2.311618e+002
      vertex -4.650000e+001 -3.100000e+001  2.467536e+002
      vertex -3.440812e+001 -3.100000e+001  2.346618e+002
    endloop
  endfacet
  facet normal  7.071066e-001  0.000000e+000  7.071069e-001
    outer loop
      vertex -3.316548e+001 -2.800000e+001  2.376618e+002
      vertex -4.350000e+001 -2.800000e+001  2.479963e+002
      vertex -3.316548e+001 -3.100000e+001  2.376618e+002
    endloop
  endfacet
  facet normal  7.071066e-001  0.000000e+000  7.071069e-001
    outer loop
      vertex -3.316548e+001 -3.100000e+001  2.376618e+002
      vertex -4.350000e+001 -2.800000e+001  2.479963e+002
      vertex -4.350000e+001 -3.100000e+001  2.479963e+002
    endloop
  endfacet
  facet normal  9.999999e-001  0.000000e+000  0.000000e+000
    outer loop
      vertex -4.350000e+001 -2.800000e+001  2.479963e+002
      vertex -4.350000e+001 -2.800000e+001  2.946617e+002
      vertex -4.350000e+001 -3.100000e+001  2.479963e+002
    endloop
  endfacet
  facet normal  9.999999e-001  0.000000e+000  0.000000e+000
    outer loop
      vertex -4.350000e+001 -3.100000e+001  2.479963e+002
      vertex -4.350000e+001 -2.800000e+001  2.946617e+002
      vertex -4.350000e+001 -3.100000e+001  2.946617e+002
    endloop
  endfacet
  facet normal  -0.000000e+000  0.000000e+000 -1.000000e+000
    outer loop
      vertex -4.350000e+001 -2.800000e+001  2.946617e+002
      vertex  4.350000e+001 -2.800000e+001  2.946617e+002
      vertex -4.350000e+001 -3.100000e+001  2.946617e+002
    endloop
  endfacet
  facet normal  0.000000e+000  0.000000e+000 -1.000000e+000
    outer loop
      vertex -4.350000e+001 -3.100000e+001  2.946617e+002
      vertex  4.350000e+001 -2.800000e+001  2.946617e+002
      vertex  4.350000e+001 -3.100000e+001  2.946617e+002
    endloop
  endfacet
  facet normal -9.999999e-001  0.000000e+000  0.000000e+000
    outer loop
      vertex  4.350000e+001 -2.800000e+001  2.946617e+002
      vertex  4.350000e+001 -2.800000e+001  2.479963e+002
      vertex  4.350000e+001 -3.100000e+001  2.946617e+002
    endloop
  endfacet
  facet normal -9.999999e-001  0.000000e+000  0.000000e+000
    outer loop
      vertex  4.350000e+001 -3.100000e+001  2.946617e+002
      vertex  4.350000e+001 -2.800000e+001  2.479963e+002
      vertex  4.350000e+001 -3.100000e+001  2.479963e+002
    endloop
  endfacet
  facet normal -7.071066e-001  0.000000e+000  7.071069e-001
    outer loop
      vertex  4.350000e+001 -2.800000e+001  2.479963e+002
      vertex  3.316548e+001 -2.800000e+001  2.376618e+002
      vertex  4.350000e+001 -3.100000e+001  2.479963e+002
    endloop
  endfacet
  facet normal -7.071066e-001  0.000000e+000  7.071069e-001
    outer loop
      vertex  4.350000e+001 -3.100000e+001  2.479963e+002
      vertex  3.316548e+001 -2.800000e+001  2.376618e+002
      vertex  3.316548e+001 -3.100000e+001  2.376618e+002
    endloop
  endfacet
  facet normal  -0.000000e+000  0.000000e+000  9.999999e-001
    outer loop
      vertex  3.316548e+001 -2.800000e+001  2.376618e+002
      vertex -3.316548e+001 -2.800000e+001  2.376618e+002
      vertex  3.316548e+001 -3.100000e+001  2.376618e+002
    endloop
  endfacet
  facet normal  0.000000e+000  0.000000e+000  9.999999e-001
    outer loop
      vertex  3.316548e+001 -3.100000e+001  2.376618e+002
      vertex -3.316548e+001 -2.800000e+001  2.376618e+002
      vertex -3.316548e+001 -3.100000e+001  2.376618e+002
    endloop
  endfacet
  facet normal  0.000000e+000  0.000000e+000 -1.000000e+000
    outer loop
      vertex  3.440812e+001 -2.800000e+001  2.346618e+002
      vertex  3.440812e+001 -3.100000e+001  2.346618e+002
      vertex -3.440812e+001 -2.800000e+001  2.346618e+002
    endloop
  endfacet
  facet normal  0.000000e+000  0.000000e+000 -1.000000e+000
    outer loop
      vertex -3.440812e+001 -2.800000e+001  2.346618e+002
      vertex  3.440812e+001 -3.100000e+001  2.346618e+002
      vertex -3.440812e+001 -3.100000e+001  2.346618e+002
    endloop
  endfacet
  facet normal  7.071069e-001  0.000000e+000 -7.071066e-001
    outer loop
      vertex  4.650000e+001 -2.800000e+001  2.467536e+002
      vertex  4.650000e+001 -3.100000e+001  2.467536e+002
      vertex  3.440812e+001 -2.800000e+001  2.346618e+002
    endloop
  endfacet
  facet normal  7.071069e-001  0.000000e+000 -7.071066e-001
    outer loop
      vertex  3.440812e+001 -2.800000e+001  2.346618e+002
      vertex  4.650000e+001 -3.100000e+001  2.467536e+002
      vertex  3.440812e+001 -3.100000e+001  2.346618e+002
    endloop
  endfacet
  facet normal  1.000000e+000  -0.000000e+000  0.000000e+000
    outer loop
      vertex  4.650000e+001 -2.800000e+001  2.976617e+002
      vertex  4.650000e+001 -3.100000e+001  2.976617e+002
      vertex  4.650000e+001 -2.800000e+001  2.467536e+002
    endloop
  endfacet
  facet normal  1.000000e+000  0.000000e+000  0.000000e+000
    outer loop
      vertex  4.650000e+001 -2.800000e+001  2.467536e+002
      vertex  4.650000e+001 -3.100000e+001  2.976617e+002
      vertex  4.650000e+001 -3.100000e+001  2.467536e+002
    endloop
  endfacet
  facet normal  0.000000e+000  0.000000e+000  1.000000e+000
    outer loop
      vertex -4.650000e+001 -2.800000e+001  2.976617e+002
      vertex -4.650000e+001 -3.100000e+001  2.976617e+002
      vertex  4.650000e+001 -2.800000e+001  2.976617e+002
    endloop
  endfacet
  facet normal  0.000000e+000  0.000000e+000  1.000000e+000
    outer loop
      vertex  4.650000e+001 -2.800000e+001  2.976617e+002
      vertex -4.650000e+001 -3.100000e+001  2.976617e+002
      vertex  4.650000e+001 -3.100000e+001  2.976617e+002
    endloop
  endfacet
  facet normal -1.000000e+000  0.000000e+000  0.000000e+000
    outer loop
      vertex -4.650000e+001 -2.800000e+001  2.467536e+002
      vertex -4.650000e+001 -3.100000e+001  2.467536e+002
      vertex -4.650000e+001 -2.800000e+001  2.976617e+002
    endloop
  endfacet
  facet normal -1.000000e+000  -0.000000e+000  0.000000e+000
    outer loop
      vertex -4.650000e+001 -2.800000e+001  2.976617e+002
      vertex -4.650000e+001 -3.100000e+001  2.467536e+002
      vertex -4.650000e+001 -3.100000e+001  2.976617e+002
    endloop
  endfacet
  facet normal -7.071069e-001  0.000000e+000 -7.071066e-001
    outer loop
      vertex -3.440812e+001 -2.800000e+001  2.346618e+002
      vertex -3.440812e+001 -3.100000e+001  2.346618e+002
      vertex -4.650000e+001 -2.800000e+001  2.467536e+002
    endloop
  endfacet
  facet normal -7.071069e-001  -0.000000e+000 -7.071066e-001
    outer loop
      vertex -4.650000e+001 -2.800000e+001  2.467536e+002
      vertex -3.440812e+001 -3.100000e+001  2.346618e+002
      vertex -4.650000e+001 -3.100000e+001  2.467536e+002
    endloop
  endfacet
  facet normal  0.000000e+000 -1.000000e+000  0.000000e+000
    outer loop
      vertex  5.000000e+001 -3.200000e+001  3.011617e+002
      vertex -5.000000e+001 -3.200000e+001  3.011617e+002
      vertex  5.000000e+001 -3.200000e+001  2.453039e+002
    endloop
  endfacet
  facet normal  0.000000e+000 -1.000000e+000  0.000000e+000
    outer loop
      vertex  5.000000e+001 -3.200000e+001  2.453039e+002
      vertex -5.000000e+001 -3.200000e+001  3.011617e+002
      vertex -5.000000e+001 -3.200000e+001  2.453039e+002
    endloop
  endfacet
  facet normal  0.000000e+000 -9.999999e-001  0.000000e+000
    outer loop
      vertex  5.000000e+001 -3.200000e+001  2.453039e+002
      vertex -5.000000e+001 -3.200000e+001  2.453039e+002
      vertex  3.585786e+001 -3.200000e+001  2.311618e+002
    endloop
  endfacet
  facet normal  0.000000e+000 -1.000000e+000  0.000000e+000
    outer loop
      vertex  3.585786e+001 -3.200000e+001  2.311618e+002
      vertex -5.000000e+001 -3.200000e+001  2.453039e+002
      vertex -3.585786e+001 -3.200000e+001  2.311618e+002
    endloop
  endfacet
  facet normal  1.000000e+000  0.000000e+000  0.000000e+000
    outer loop
      vertex  5.000000e+001 -3.200000e+001  2.453039e+002
      vertex  5.000000e+001 -3.100000e+001  2.453039e+002
      vertex  5.000000e+001 -3.200000e+001  3.011617e+002
    endloop
  endfacet
  facet normal  1.000000e+000  -0.000000e+000  0.000000e+000
    outer loop
      vertex  5.000000e+001 -3.200000e+001  3.011617e+002
      vertex  5.000000e+001 -3.100000e+001  2.453039e+002
      vertex  5.000000e+001 -3.100000e+001  3.011617e+002
    endloop
  endfacet
  facet normal  7.071068e-001  0.000000e+000 -7.071068e-001
    outer loop
      vertex  3.585786e+001 -3.200000e+001  2.311618e+002
      vertex  3.585786e+001 -3.100000e+001  2.311618e+002
      vertex  5.000000e+001 -3.200000e+001  2.453039e+002
    endloop
  endfacet
  facet normal  7.071068e-001  0.000000e+000 -7.071068e-001
    outer loop
      vertex  5.000000e+001 -3.200000e+001  2.453039e+002
      vertex  3.585786e+001 -3.100000e+001  2.311618e+002
      vertex  5.000000e+001 -3.100000e+001  2.453039e+002
    endloop
  endfacet
  facet normal  0.000000e+000  0.000000e+000 -1.000000e+000
    outer loop
      vertex -3.585786e+001 -3.200000e+001  2.311618e+002
      vertex -3.585786e+001 -3.100000e+001  2.311618e+002
      vertex  3.585786e+001 -3.200000e+001  2.311618e+002
    endloop
  endfacet
  facet normal  0.000000e+000  0.000000e+000 -1.000000e+000
    outer loop
      vertex  3.585786e+001 -3.200000e+001  2.311618e+002
      vertex -3.585786e+001 -3.100000e+001  2.311618e+002
      vertex  3.585786e+001 -3.100000e+001  2.311618e+002
    endloop
  endfacet
  facet normal -7.071068e-001  -0.000000e+000 -7.071068e-001
    outer loop
      vertex -5.000000e+001 -3.200000e+001  2.453039e+002
      vertex -5.000000e+001 -3.100000e+001  2.453039e+002
      vertex -3.585786e+001 -3.200000e+001  2.311618e+002
    endloop
  endfacet
  facet normal -7.071068e-001  0.000000e+000 -7.071068e-001
    outer loop
      vertex -3.585786e+001 -3.200000e+001  2.311618e+002
      vertex -5.000000e+001 -3.100000e+001  2.453039e+002
      vertex -3.585786e+001 -3.100000e+001  2.311618e+002
    endloop
  endfacet
  facet normal -1.000000e+000  -0.000000e+000  0.000000e+000
    outer loop
      vertex -5.000000e+001 -3.200000e+001  3.011617e+002
      vertex -5.000000e+001 -3.100000e+001  3.011617e+002
      vertex -5.000000e+001 -3.200000e+001  2.453039e+002
    endloop
  endfacet
  facet normal -1.000000e+000  0.000000e+000  0.000000e+000
    outer loop
      vertex -5.000000e+001 -3.200000e+001  2.453039e+002
      vertex -5.000000e+001 -3.100000e+001  3.011617e+002
      vertex -5.000000e+001 -3.100000e+001  2.453039e+002
    endloop
  endfacet
  facet normal  0.000000e+000  0.000000e+000  1.000000e+000
    outer loop
      vertex  5.000000e+001 -3.200000e+001  3.011617e+002
      vertex  5.000000e+001 -3.100000e+001  3.011617e+002
      vertex -5.000000e+001 -3.200000e+001  3.011617e+002
    endloop
  endfacet
  facet normal  0.000000e+000  0.000000e+000  1.000000e+000
    outer loop
      vertex -5.000000e+001 -3.200000e+001  3.011617e+002
      vertex  5.000000e+001 -3.100000e+001  3.011617e+002
      vertex -5.000000e+001 -3.100000e+001  3.011617e+002
    endloop
  endfacet
  facet normal  0.000000e+000  1.000000e+000  0.000000e+000
    outer loop
      vertex -3.440812e+001 -2.800000e+001  2.346618e+002
      vertex -3.316548e+001 -2.800000e+001  2.376618e+002
      vertex  3.440812e+001 -2.800000e+001  2.346618e+002
    endloop
  endfacet
  facet normal  0.000000e+000  9.999999e-001  0.000000e+000
    outer loop
      vertex  3.440812e+001 -2.800000e+001  2.346618e+002
      vertex -3.316548e+001 -2.800000e+001  2.376618e+002
      vertex  3.316548e+001 -2.800000e+001  2.376618e+002
    endloop
  endfacet
  facet normal  -0.000000e+000  1.000000e+000  0.000000e+000
    outer loop
      vertex  3.440812e+001 -2.800000e+001  2.346618e+002
      vertex  3.316548e+001 -2.800000e+001  2.376618e+002
      vertex  4.650000e+001 -2.800000e+001  2.467536e+002
    endloop
  endfacet
  facet normal  0.000000e+000  1.000000e+000  0.000000e+000
    outer loop
      vertex  4.650000e+001 -2.800000e+001  2.467536e+002
      vertex  3.316548e+001 -2.800000e+001  2.376618e+002
      vertex  4.350000e+001 -2.800000e+001  2.479963e+002
    endloop
  endfacet
  facet normal  -0.000000e+000  1.000000e+000  0.000000e+000
    outer loop
      vertex  4.650000e+001 -2.800000e+001  2.467536e+002
      vertex  4.350000e+001 -2.800000e+001  2.479963e+002
      vertex  4.650000e+001 -2.800000e+001  2.976617e+002
    endloop
  endfacet
  facet normal  0.000000e+000  9.999999e-001  0.000000e+000
    outer loop
      vertex  4.650000e+001 -2.800000e+001  2.976617e+002
      vertex  4.350000e+001 -2.800000e+001  2.479963e+002
      vertex  4.350000e+001 -2.800000e+001  2.946617e+002
    endloop
  endfacet
  facet normal  0.000000e+000  1.000000e+000  -0.000000e+000
    outer loop
      vertex  4.650000e+001 -2.800000e+001  2.976617e+002
      vertex  4.350000e+001 -2.800000e+001  2.946617e+002
      vertex -4.650000e+001 -2.800000e+001  2.976617e+002
    endloop
  endfacet
  facet normal  0.000000e+000  1.000000e+000  0.000000e+000
    outer loop
      vertex -4.650000e+001 -2.800000e+001  2.976617e+002
      vertex  4.350000e+001 -2.800000e+001  2.946617e+002
      vertex -4.350000e+001 -2.800000e+001  2.946617e+002
    endloop
  endfacet
  facet normal  0.000000e+000  1.000000e+000  0.000000e+000
    outer loop
      vertex -4.650000e+001 -2.800000e+001  2.976617e+002
      vertex -4.350000e+001 -2.800000e+001  2.946617e+002
      vertex -4.650000e+001 -2.800000e+001  2.467536e+002
    endloop
  endfacet
  facet normal  0.000000e+000  9.999999e-001  0.000000e+000
    outer loop
      vertex -4.650000e+001 -2.800000e+001  2.467536e+002
      vertex -4.350000e+001 -2.800000e+001  2.946617e+002
      vertex -4.350000e+001 -2.800000e+001  2.479963e+002
    endloop
  endfacet
  facet normal  0.000000e+000  1.000000e+000  0.000000e+000
    outer loop
      vertex -4.650000e+001 -2.800000e+001  2.467536e+002
      vertex -4.350000e+001 -2.800000e+001  2.479963e+002
      vertex -3.440812e+001 -2.800000e+001  2.346618e+002
    endloop
  endfacet
  facet normal  0.000000e+000  9.999999e-001  -0.000000e+000
    outer loop
      vertex -3.440812e+001 -2.800000e+001  2.346618e+002
      vertex -4.350000e+001 -2.800000e+001  2.479963e+002
      vertex -3.316548e+001 -2.800000e+001  2.376618e+002
    endloop
  endfacet
endsolid CATIA STL
