solid CATIA STL
  facet normal  0.000000e+000  0.000000e+000  1.000000e+000
    outer loop
      vertex -8.365234e+001 -9.976958e+001  3.141617e+002
      vertex -4.603347e+001 -8.229919e+001  3.141617e+002
      vertex -4.678652e+001 -8.256864e+001  3.141617e+002
    endloop
  endfacet
  facet normal  0.000000e+000  0.000000e+000  1.000000e+000
    outer loop
      vertex -8.365234e+001 -9.976958e+001  3.141617e+002
      vertex -4.678652e+001 -8.256864e+001  3.141617e+002
      vertex -4.756236e+001 -8.276298e+001  3.141617e+002
    endloop
  endfacet
  facet normal  0.000000e+000  0.000000e+000  9.999999e-001
    outer loop
      vertex -8.365234e+001 -9.976958e+001  3.141617e+002
      vertex -4.756236e+001 -8.276298e+001  3.141617e+002
      vertex -4.835350e+001 -8.288033e+001  3.141617e+002
    endloop
  endfacet
  facet normal  0.000000e+000  0.000000e+000  1.000000e+000
    outer loop
      vertex -8.365234e+001 -9.976958e+001  3.141617e+002
      vertex -4.835350e+001 -8.288033e+001  3.141617e+002
      vertex -4.915234e+001 -8.291958e+001  3.141617e+002
    endloop
  endfacet
  facet normal  0.000000e+000  0.000000e+000  1.000000e+000
    outer loop
      vertex -8.365234e+001 -9.976958e+001  3.141617e+002
      vertex -4.915234e+001 -8.291958e+001  3.141617e+002
      vertex -4.995118e+001 -8.288033e+001  3.141617e+002
    endloop
  endfacet
  facet normal  0.000000e+000  0.000000e+000  1.000000e+000
    outer loop
      vertex -8.365234e+001 -9.976958e+001  3.141617e+002
      vertex -4.995118e+001 -8.288033e+001  3.141617e+002
      vertex -5.074233e+001 -8.276298e+001  3.141617e+002
    endloop
  endfacet
  facet normal  0.000000e+000  0.000000e+000  1.000000e+000
    outer loop
      vertex -8.365234e+001 -9.976958e+001  3.141617e+002
      vertex -5.074233e+001 -8.276298e+001  3.141617e+002
      vertex -5.151817e+001 -8.256864e+001  3.141617e+002
    endloop
  endfacet
  facet normal  0.000000e+000  0.000000e+000  1.000000e+000
    outer loop
      vertex -8.365234e+001 -9.976958e+001  3.141617e+002
      vertex -5.151817e+001 -8.256864e+001  3.141617e+002
      vertex -5.227121e+001 -8.229919e+001  3.141617e+002
    endloop
  endfacet
  facet normal  0.000000e+000  0.000000e+000  1.000000e+000
    outer loop
      vertex -8.365234e+001 -9.976958e+001  3.141617e+002
      vertex -5.227121e+001 -8.229919e+001  3.141617e+002
      vertex -5.299423e+001 -8.195724e+001  3.141617e+002
    endloop
  endfacet
  facet normal  0.000000e+000  0.000000e+000  1.000000e+000
    outer loop
      vertex -8.365234e+001 -9.976958e+001  3.141617e+002
      vertex -5.299423e+001 -8.195724e+001  3.141617e+002
      vertex -5.368024e+001 -8.154605e+001  3.141617e+002
    endloop
  endfacet
  facet normal  0.000000e+000  0.000000e+000  1.000000e+000
    outer loop
      vertex -8.365234e+001 -9.976958e+001  3.141617e+002
      vertex -5.368024e+001 -8.154605e+001  3.141617e+002
      vertex -5.432265e+001 -8.106961e+001  3.141617e+002
    endloop
  endfacet
  facet normal  0.000000e+000  0.000000e+000  1.000000e+000
    outer loop
      vertex -8.365234e+001 -9.976958e+001  3.141617e+002
      vertex -5.432265e+001 -8.106961e+001  3.141617e+002
      vertex -5.491526e+001 -8.053249e+001  3.141617e+002
    endloop
  endfacet
  facet normal  0.000000e+000  0.000000e+000  1.000000e+000
    outer loop
      vertex -8.365234e+001 -9.976958e+001  3.141617e+002
      vertex -5.491526e+001 -8.053249e+001  3.141617e+002
      vertex -5.545238e+001 -7.993988e+001  3.141617e+002
    endloop
  endfacet
  facet normal  0.000000e+000  0.000000e+000  1.000000e+000
    outer loop
      vertex -8.365234e+001 -9.976958e+001  3.141617e+002
      vertex -5.545238e+001 -7.993988e+001  3.141617e+002
      vertex -5.592882e+001 -7.929747e+001  3.141617e+002
    endloop
  endfacet
  facet normal  0.000000e+000  0.000000e+000  1.000000e+000
    outer loop
      vertex -8.365234e+001 -9.976958e+001  3.141617e+002
      vertex -5.592882e+001 -7.929747e+001  3.141617e+002
      vertex -5.634000e+001 -7.861146e+001  3.141617e+002
    endloop
  endfacet
  facet normal  0.000000e+000  0.000000e+000  1.000000e+000
    outer loop
      vertex -8.365234e+001 -9.976958e+001  3.141617e+002
      vertex -5.634000e+001 -7.861146e+001  3.141617e+002
      vertex -5.668196e+001 -7.788844e+001  3.141617e+002
    endloop
  endfacet
  facet normal  0.000000e+000  0.000000e+000  1.000000e+000
    outer loop
      vertex -8.365234e+001 -9.976958e+001  3.141617e+002
      vertex -5.668196e+001 -7.788844e+001  3.141617e+002
      vertex -5.695141e+001 -7.713540e+001  3.141617e+002
    endloop
  endfacet
  facet normal  0.000000e+000  0.000000e+000  1.000000e+000
    outer loop
      vertex -8.365234e+001 -9.976958e+001  3.141617e+002
      vertex -5.695141e+001 -7.713540e+001  3.141617e+002
      vertex -5.714574e+001 -7.635956e+001  3.141617e+002
    endloop
  endfacet
  facet normal  0.000000e+000  0.000000e+000  1.000000e+000
    outer loop
      vertex -8.365234e+001 -9.976958e+001  3.141617e+002
      vertex -5.714574e+001 -7.635956e+001  3.141617e+002
      vertex -5.726310e+001 -7.556841e+001  3.141617e+002
    endloop
  endfacet
  facet normal  0.000000e+000  0.000000e+000  1.000000e+000
    outer loop
      vertex -8.365234e+001 -9.976958e+001  3.141617e+002
      vertex -5.726310e+001 -7.556841e+001  3.141617e+002
      vertex -5.730235e+001 -7.476958e+001  3.141617e+002
    endloop
  endfacet
  facet normal  0.000000e+000  0.000000e+000  1.000000e+000
    outer loop
      vertex -8.365234e+001 -9.976958e+001  3.141617e+002
      vertex -5.730235e+001 -7.476958e+001  3.141617e+002
      vertex -8.365234e+001 -4.976958e+001  3.141617e+002
    endloop
  endfacet
  facet normal  0.000000e+000  0.000000e+000  1.000000e+000
    outer loop
      vertex -1.465234e+001 -9.976958e+001  3.141617e+002
      vertex -1.465234e+001 -4.976958e+001  3.141617e+002
      vertex -4.100234e+001 -7.476958e+001  3.141617e+002
    endloop
  endfacet
  facet normal  0.000000e+000  0.000000e+000  1.000000e+000
    outer loop
      vertex -1.465234e+001 -9.976958e+001  3.141617e+002
      vertex -4.100234e+001 -7.476958e+001  3.141617e+002
      vertex -4.104159e+001 -7.556841e+001  3.141617e+002
    endloop
  endfacet
  facet normal  0.000000e+000  0.000000e+000  1.000000e+000
    outer loop
      vertex -1.465234e+001 -9.976958e+001  3.141617e+002
      vertex -4.104159e+001 -7.556841e+001  3.141617e+002
      vertex -4.115894e+001 -7.635956e+001  3.141617e+002
    endloop
  endfacet
  facet normal  0.000000e+000  0.000000e+000  1.000000e+000
    outer loop
      vertex -1.465234e+001 -9.976958e+001  3.141617e+002
      vertex -4.115894e+001 -7.635956e+001  3.141617e+002
      vertex -4.135328e+001 -7.713540e+001  3.141617e+002
    endloop
  endfacet
  facet normal  0.000000e+000  0.000000e+000  1.000000e+000
    outer loop
      vertex -1.465234e+001 -9.976958e+001  3.141617e+002
      vertex -4.135328e+001 -7.713540e+001  3.141617e+002
      vertex -4.162273e+001 -7.788844e+001  3.141617e+002
    endloop
  endfacet
  facet normal  0.000000e+000  0.000000e+000  1.000000e+000
    outer loop
      vertex -1.465234e+001 -9.976958e+001  3.141617e+002
      vertex -4.162273e+001 -7.788844e+001  3.141617e+002
      vertex -4.196469e+001 -7.861146e+001  3.141617e+002
    endloop
  endfacet
  facet normal  0.000000e+000  0.000000e+000  1.000000e+000
    outer loop
      vertex -1.465234e+001 -9.976958e+001  3.141617e+002
      vertex -4.196469e+001 -7.861146e+001  3.141617e+002
      vertex -4.237587e+001 -7.929747e+001  3.141617e+002
    endloop
  endfacet
  facet normal  0.000000e+000  0.000000e+000  1.000000e+000
    outer loop
      vertex -1.465234e+001 -9.976958e+001  3.141617e+002
      vertex -4.237587e+001 -7.929747e+001  3.141617e+002
      vertex -4.285231e+001 -7.993988e+001  3.141617e+002
    endloop
  endfacet
  facet normal  0.000000e+000  0.000000e+000  1.000000e+000
    outer loop
      vertex -1.465234e+001 -9.976958e+001  3.141617e+002
      vertex -4.285231e+001 -7.993988e+001  3.141617e+002
      vertex -4.338942e+001 -8.053249e+001  3.141617e+002
    endloop
  endfacet
  facet normal  0.000000e+000  0.000000e+000  1.000000e+000
    outer loop
      vertex -1.465234e+001 -9.976958e+001  3.141617e+002
      vertex -4.338942e+001 -8.053249e+001  3.141617e+002
      vertex -4.398204e+001 -8.106961e+001  3.141617e+002
    endloop
  endfacet
  facet normal  0.000000e+000  0.000000e+000  9.999999e-001
    outer loop
      vertex -1.465234e+001 -9.976958e+001  3.141617e+002
      vertex -4.398204e+001 -8.106961e+001  3.141617e+002
      vertex -4.462445e+001 -8.154605e+001  3.141617e+002
    endloop
  endfacet
  facet normal  0.000000e+000  0.000000e+000  1.000000e+000
    outer loop
      vertex -1.465234e+001 -9.976958e+001  3.141617e+002
      vertex -4.462445e+001 -8.154605e+001  3.141617e+002
      vertex -4.531046e+001 -8.195724e+001  3.141617e+002
    endloop
  endfacet
  facet normal  0.000000e+000  0.000000e+000  1.000000e+000
    outer loop
      vertex -1.465234e+001 -9.976958e+001  3.141617e+002
      vertex -4.531046e+001 -8.195724e+001  3.141617e+002
      vertex -4.603347e+001 -8.229919e+001  3.141617e+002
    endloop
  endfacet
  facet normal  0.000000e+000  0.000000e+000  1.000000e+000
    outer loop
      vertex -1.465234e+001 -9.976958e+001  3.141617e+002
      vertex -4.603347e+001 -8.229919e+001  3.141617e+002
      vertex -8.365234e+001 -9.976958e+001  3.141617e+002
    endloop
  endfacet
  facet normal  0.000000e+000  -0.000000e+000  1.000000e+000
    outer loop
      vertex -8.365234e+001 -4.976958e+001  3.141617e+002
      vertex -5.730235e+001 -7.476958e+001  3.141617e+002
      vertex -5.726310e+001 -7.397073e+001  3.141617e+002
    endloop
  endfacet
  facet normal  0.000000e+000  -0.000000e+000  1.000000e+000
    outer loop
      vertex -8.365234e+001 -4.976958e+001  3.141617e+002
      vertex -5.726310e+001 -7.397073e+001  3.141617e+002
      vertex -5.714574e+001 -7.317959e+001  3.141617e+002
    endloop
  endfacet
  facet normal  0.000000e+000  -0.000000e+000  1.000000e+000
    outer loop
      vertex -8.365234e+001 -4.976958e+001  3.141617e+002
      vertex -5.714574e+001 -7.317959e+001  3.141617e+002
      vertex -5.695141e+001 -7.240376e+001  3.141617e+002
    endloop
  endfacet
  facet normal  0.000000e+000  -0.000000e+000  1.000000e+000
    outer loop
      vertex -8.365234e+001 -4.976958e+001  3.141617e+002
      vertex -5.695141e+001 -7.240376e+001  3.141617e+002
      vertex -5.668196e+001 -7.165070e+001  3.141617e+002
    endloop
  endfacet
  facet normal  0.000000e+000  -0.000000e+000  9.999999e-001
    outer loop
      vertex -8.365234e+001 -4.976958e+001  3.141617e+002
      vertex -5.668196e+001 -7.165070e+001  3.141617e+002
      vertex -5.634000e+001 -7.092769e+001  3.141617e+002
    endloop
  endfacet
  facet normal  0.000000e+000  -0.000000e+000  9.999999e-001
    outer loop
      vertex -8.365234e+001 -4.976958e+001  3.141617e+002
      vertex -5.634000e+001 -7.092769e+001  3.141617e+002
      vertex -5.592882e+001 -7.024168e+001  3.141617e+002
    endloop
  endfacet
  facet normal  0.000000e+000  -0.000000e+000  1.000000e+000
    outer loop
      vertex -8.365234e+001 -4.976958e+001  3.141617e+002
      vertex -5.592882e+001 -7.024168e+001  3.141617e+002
      vertex -5.545238e+001 -6.959927e+001  3.141617e+002
    endloop
  endfacet
  facet normal  0.000000e+000  -0.000000e+000  9.999999e-001
    outer loop
      vertex -8.365234e+001 -4.976958e+001  3.141617e+002
      vertex -5.545238e+001 -6.959927e+001  3.141617e+002
      vertex -5.491526e+001 -6.900665e+001  3.141617e+002
    endloop
  endfacet
  facet normal  0.000000e+000  -0.000000e+000  1.000000e+000
    outer loop
      vertex -8.365234e+001 -4.976958e+001  3.141617e+002
      vertex -5.491526e+001 -6.900665e+001  3.141617e+002
      vertex -5.432265e+001 -6.846954e+001  3.141617e+002
    endloop
  endfacet
  facet normal  0.000000e+000  -0.000000e+000  1.000000e+000
    outer loop
      vertex -8.365234e+001 -4.976958e+001  3.141617e+002
      vertex -5.432265e+001 -6.846954e+001  3.141617e+002
      vertex -5.368024e+001 -6.799310e+001  3.141617e+002
    endloop
  endfacet
  facet normal  0.000000e+000  -0.000000e+000  1.000000e+000
    outer loop
      vertex -8.365234e+001 -4.976958e+001  3.141617e+002
      vertex -5.368024e+001 -6.799310e+001  3.141617e+002
      vertex -5.299423e+001 -6.758192e+001  3.141617e+002
    endloop
  endfacet
  facet normal  0.000000e+000  -0.000000e+000  1.000000e+000
    outer loop
      vertex -8.365234e+001 -4.976958e+001  3.141617e+002
      vertex -5.299423e+001 -6.758192e+001  3.141617e+002
      vertex -5.227121e+001 -6.723996e+001  3.141617e+002
    endloop
  endfacet
  facet normal  0.000000e+000  -0.000000e+000  1.000000e+000
    outer loop
      vertex -8.365234e+001 -4.976958e+001  3.141617e+002
      vertex -5.227121e+001 -6.723996e+001  3.141617e+002
      vertex -5.151817e+001 -6.697051e+001  3.141617e+002
    endloop
  endfacet
  facet normal  0.000000e+000  -0.000000e+000  1.000000e+000
    outer loop
      vertex -8.365234e+001 -4.976958e+001  3.141617e+002
      vertex -5.151817e+001 -6.697051e+001  3.141617e+002
      vertex -5.074233e+001 -6.677618e+001  3.141617e+002
    endloop
  endfacet
  facet normal  0.000000e+000  -0.000000e+000  1.000000e+000
    outer loop
      vertex -8.365234e+001 -4.976958e+001  3.141617e+002
      vertex -5.074233e+001 -6.677618e+001  3.141617e+002
      vertex -4.995118e+001 -6.665882e+001  3.141617e+002
    endloop
  endfacet
  facet normal  0.000000e+000  -0.000000e+000  1.000000e+000
    outer loop
      vertex -8.365234e+001 -4.976958e+001  3.141617e+002
      vertex -4.995118e+001 -6.665882e+001  3.141617e+002
      vertex -4.915234e+001 -6.661958e+001  3.141617e+002
    endloop
  endfacet
  facet normal  -0.000000e+000  -0.000000e+000  1.000000e+000
    outer loop
      vertex -8.365234e+001 -4.976958e+001  3.141617e+002
      vertex -4.915234e+001 -6.661958e+001  3.141617e+002
      vertex -4.835350e+001 -6.665882e+001  3.141617e+002
    endloop
  endfacet
  facet normal  -0.000000e+000  -0.000000e+000  9.999999e-001
    outer loop
      vertex -8.365234e+001 -4.976958e+001  3.141617e+002
      vertex -4.835350e+001 -6.665882e+001  3.141617e+002
      vertex -4.756236e+001 -6.677618e+001  3.141617e+002
    endloop
  endfacet
  facet normal  -0.000000e+000  -0.000000e+000  1.000000e+000
    outer loop
      vertex -8.365234e+001 -4.976958e+001  3.141617e+002
      vertex -4.756236e+001 -6.677618e+001  3.141617e+002
      vertex -4.678652e+001 -6.697051e+001  3.141617e+002
    endloop
  endfacet
  facet normal  -0.000000e+000  -0.000000e+000  1.000000e+000
    outer loop
      vertex -8.365234e+001 -4.976958e+001  3.141617e+002
      vertex -4.678652e+001 -6.697051e+001  3.141617e+002
      vertex -4.603347e+001 -6.723996e+001  3.141617e+002
    endloop
  endfacet
  facet normal  -0.000000e+000  0.000000e+000  1.000000e+000
    outer loop
      vertex -1.465234e+001 -4.976958e+001  3.141617e+002
      vertex -8.365234e+001 -4.976958e+001  3.141617e+002
      vertex -4.603347e+001 -6.723996e+001  3.141617e+002
    endloop
  endfacet
  facet normal  -0.000000e+000  0.000000e+000  1.000000e+000
    outer loop
      vertex -1.465234e+001 -4.976958e+001  3.141617e+002
      vertex -4.603347e+001 -6.723996e+001  3.141617e+002
      vertex -4.531046e+001 -6.758192e+001  3.141617e+002
    endloop
  endfacet
  facet normal  -0.000000e+000  0.000000e+000  1.000000e+000
    outer loop
      vertex -1.465234e+001 -4.976958e+001  3.141617e+002
      vertex -4.531046e+001 -6.758192e+001  3.141617e+002
      vertex -4.462445e+001 -6.799310e+001  3.141617e+002
    endloop
  endfacet
  facet normal  -0.000000e+000  0.000000e+000  1.000000e+000
    outer loop
      vertex -1.465234e+001 -4.976958e+001  3.141617e+002
      vertex -4.462445e+001 -6.799310e+001  3.141617e+002
      vertex -4.398204e+001 -6.846954e+001  3.141617e+002
    endloop
  endfacet
  facet normal  -0.000000e+000  0.000000e+000  9.999999e-001
    outer loop
      vertex -1.465234e+001 -4.976958e+001  3.141617e+002
      vertex -4.398204e+001 -6.846954e+001  3.141617e+002
      vertex -4.338942e+001 -6.900665e+001  3.141617e+002
    endloop
  endfacet
  facet normal  -0.000000e+000  0.000000e+000  9.999999e-001
    outer loop
      vertex -1.465234e+001 -4.976958e+001  3.141617e+002
      vertex -4.338942e+001 -6.900665e+001  3.141617e+002
      vertex -4.285231e+001 -6.959927e+001  3.141617e+002
    endloop
  endfacet
  facet normal  -0.000000e+000  0.000000e+000  1.000000e+000
    outer loop
      vertex -1.465234e+001 -4.976958e+001  3.141617e+002
      vertex -4.285231e+001 -6.959927e+001  3.141617e+002
      vertex -4.237587e+001 -7.024168e+001  3.141617e+002
    endloop
  endfacet
  facet normal  -0.000000e+000  0.000000e+000  1.000000e+000
    outer loop
      vertex -1.465234e+001 -4.976958e+001  3.141617e+002
      vertex -4.237587e+001 -7.024168e+001  3.141617e+002
      vertex -4.196469e+001 -7.092769e+001  3.141617e+002
    endloop
  endfacet
  facet normal  -0.000000e+000  0.000000e+000  9.999999e-001
    outer loop
      vertex -1.465234e+001 -4.976958e+001  3.141617e+002
      vertex -4.196469e+001 -7.092769e+001  3.141617e+002
      vertex -4.162273e+001 -7.165070e+001  3.141617e+002
    endloop
  endfacet
  facet normal  -0.000000e+000  0.000000e+000  1.000000e+000
    outer loop
      vertex -1.465234e+001 -4.976958e+001  3.141617e+002
      vertex -4.162273e+001 -7.165070e+001  3.141617e+002
      vertex -4.135328e+001 -7.240376e+001  3.141617e+002
    endloop
  endfacet
  facet normal  -0.000000e+000  0.000000e+000  1.000000e+000
    outer loop
      vertex -1.465234e+001 -4.976958e+001  3.141617e+002
      vertex -4.135328e+001 -7.240376e+001  3.141617e+002
      vertex -4.115894e+001 -7.317959e+001  3.141617e+002
    endloop
  endfacet
  facet normal  -0.000000e+000  0.000000e+000  1.000000e+000
    outer loop
      vertex -1.465234e+001 -4.976958e+001  3.141617e+002
      vertex -4.115894e+001 -7.317959e+001  3.141617e+002
      vertex -4.104159e+001 -7.397073e+001  3.141617e+002
    endloop
  endfacet
  facet normal  -0.000000e+000  0.000000e+000  1.000000e+000
    outer loop
      vertex -1.465234e+001 -4.976958e+001  3.141617e+002
      vertex -4.104159e+001 -7.397073e+001  3.141617e+002
      vertex -4.100234e+001 -7.476958e+001  3.141617e+002
    endloop
  endfacet
  facet normal  0.000000e+000  0.000000e+000 -1.000000e+000
    outer loop
      vertex -1.165234e+001 -9.976958e+001  3.111617e+002
      vertex -8.665234e+001 -9.976958e+001  3.111617e+002
      vertex -4.603347e+001 -8.229919e+001  3.111617e+002
    endloop
  endfacet
  facet normal  0.000000e+000  0.000000e+000 -1.000000e+000
    outer loop
      vertex -1.165234e+001 -9.976958e+001  3.111617e+002
      vertex -4.603347e+001 -8.229919e+001  3.111617e+002
      vertex -4.531046e+001 -8.195724e+001  3.111617e+002
    endloop
  endfacet
  facet normal  0.000000e+000  0.000000e+000 -1.000000e+000
    outer loop
      vertex -1.165234e+001 -9.976958e+001  3.111617e+002
      vertex -4.531046e+001 -8.195724e+001  3.111617e+002
      vertex -4.462445e+001 -8.154605e+001  3.111617e+002
    endloop
  endfacet
  facet normal  0.000000e+000  0.000000e+000 -9.999999e-001
    outer loop
      vertex -1.165234e+001 -9.976958e+001  3.111617e+002
      vertex -4.462445e+001 -8.154605e+001  3.111617e+002
      vertex -4.398204e+001 -8.106961e+001  3.111617e+002
    endloop
  endfacet
  facet normal  0.000000e+000  0.000000e+000 -1.000000e+000
    outer loop
      vertex -1.165234e+001 -9.976958e+001  3.111617e+002
      vertex -4.398204e+001 -8.106961e+001  3.111617e+002
      vertex -4.338942e+001 -8.053249e+001  3.111617e+002
    endloop
  endfacet
  facet normal  0.000000e+000  0.000000e+000 -9.999999e-001
    outer loop
      vertex -1.165234e+001 -9.976958e+001  3.111617e+002
      vertex -4.338942e+001 -8.053249e+001  3.111617e+002
      vertex -4.285231e+001 -7.993988e+001  3.111617e+002
    endloop
  endfacet
  facet normal  0.000000e+000  0.000000e+000 -1.000000e+000
    outer loop
      vertex -1.165234e+001 -9.976958e+001  3.111617e+002
      vertex -4.285231e+001 -7.993988e+001  3.111617e+002
      vertex -4.237587e+001 -7.929747e+001  3.111617e+002
    endloop
  endfacet
  facet normal  0.000000e+000  0.000000e+000 -1.000000e+000
    outer loop
      vertex -1.165234e+001 -9.976958e+001  3.111617e+002
      vertex -4.237587e+001 -7.929747e+001  3.111617e+002
      vertex -4.196469e+001 -7.861146e+001  3.111617e+002
    endloop
  endfacet
  facet normal  0.000000e+000  0.000000e+000 -1.000000e+000
    outer loop
      vertex -1.165234e+001 -9.976958e+001  3.111617e+002
      vertex -4.196469e+001 -7.861146e+001  3.111617e+002
      vertex -4.162273e+001 -7.788844e+001  3.111617e+002
    endloop
  endfacet
  facet normal  0.000000e+000  0.000000e+000 -1.000000e+000
    outer loop
      vertex -1.165234e+001 -9.976958e+001  3.111617e+002
      vertex -4.162273e+001 -7.788844e+001  3.111617e+002
      vertex -4.135328e+001 -7.713540e+001  3.111617e+002
    endloop
  endfacet
  facet normal  0.000000e+000  0.000000e+000 -1.000000e+000
    outer loop
      vertex -1.165234e+001 -9.976958e+001  3.111617e+002
      vertex -4.135328e+001 -7.713540e+001  3.111617e+002
      vertex -4.115894e+001 -7.635956e+001  3.111617e+002
    endloop
  endfacet
  facet normal  0.000000e+000  0.000000e+000 -1.000000e+000
    outer loop
      vertex -1.165234e+001 -9.976958e+001  3.111617e+002
      vertex -4.115894e+001 -7.635956e+001  3.111617e+002
      vertex -4.104159e+001 -7.556841e+001  3.111617e+002
    endloop
  endfacet
  facet normal  0.000000e+000  0.000000e+000 -9.999999e-001
    outer loop
      vertex -1.165234e+001 -9.976958e+001  3.111617e+002
      vertex -4.104159e+001 -7.556841e+001  3.111617e+002
      vertex -4.100234e+001 -7.476958e+001  3.111617e+002
    endloop
  endfacet
  facet normal  0.000000e+000  0.000000e+000 -1.000000e+000
    outer loop
      vertex -1.165234e+001 -9.976958e+001  3.111617e+002
      vertex -4.100234e+001 -7.476958e+001  3.111617e+002
      vertex -4.104159e+001 -7.397073e+001  3.111617e+002
    endloop
  endfacet
  facet normal  0.000000e+000  0.000000e+000 -1.000000e+000
    outer loop
      vertex -1.165234e+001 -9.976958e+001  3.111617e+002
      vertex -4.104159e+001 -7.397073e+001  3.111617e+002
      vertex -4.115894e+001 -7.317959e+001  3.111617e+002
    endloop
  endfacet
  facet normal  0.000000e+000  0.000000e+000 -1.000000e+000
    outer loop
      vertex -1.165234e+001 -9.976958e+001  3.111617e+002
      vertex -4.115894e+001 -7.317959e+001  3.111617e+002
      vertex -4.135328e+001 -7.240376e+001  3.111617e+002
    endloop
  endfacet
  facet normal  0.000000e+000  0.000000e+000 -1.000000e+000
    outer loop
      vertex -1.165234e+001 -9.976958e+001  3.111617e+002
      vertex -4.135328e+001 -7.240376e+001  3.111617e+002
      vertex -4.162273e+001 -7.165070e+001  3.111617e+002
    endloop
  endfacet
  facet normal  0.000000e+000  0.000000e+000 -1.000000e+000
    outer loop
      vertex -1.165234e+001 -9.976958e+001  3.111617e+002
      vertex -4.162273e+001 -7.165070e+001  3.111617e+002
      vertex -4.196469e+001 -7.092769e+001  3.111617e+002
    endloop
  endfacet
  facet normal  0.000000e+000  0.000000e+000 -1.000000e+000
    outer loop
      vertex -1.165234e+001 -9.976958e+001  3.111617e+002
      vertex -4.196469e+001 -7.092769e+001  3.111617e+002
      vertex -4.237587e+001 -7.024168e+001  3.111617e+002
    endloop
  endfacet
  facet normal  0.000000e+000  0.000000e+000 -9.999999e-001
    outer loop
      vertex -1.165234e+001 -9.976958e+001  3.111617e+002
      vertex -4.237587e+001 -7.024168e+001  3.111617e+002
      vertex -4.285231e+001 -6.959927e+001  3.111617e+002
    endloop
  endfacet
  facet normal  0.000000e+000  0.000000e+000 -1.000000e+000
    outer loop
      vertex -1.165234e+001 -9.976958e+001  3.111617e+002
      vertex -4.285231e+001 -6.959927e+001  3.111617e+002
      vertex -4.338942e+001 -6.900665e+001  3.111617e+002
    endloop
  endfacet
  facet normal  0.000000e+000  0.000000e+000 -1.000000e+000
    outer loop
      vertex -1.165234e+001 -4.776958e+001  3.111617e+002
      vertex -1.165234e+001 -9.976958e+001  3.111617e+002
      vertex -4.338942e+001 -6.900665e+001  3.111617e+002
    endloop
  endfacet
  facet normal  0.000000e+000  0.000000e+000 -9.999999e-001
    outer loop
      vertex -1.165234e+001 -4.776958e+001  3.111617e+002
      vertex -4.338942e+001 -6.900665e+001  3.111617e+002
      vertex -4.398204e+001 -6.846954e+001  3.111617e+002
    endloop
  endfacet
  facet normal  0.000000e+000  0.000000e+000 -1.000000e+000
    outer loop
      vertex -1.165234e+001 -4.776958e+001  3.111617e+002
      vertex -4.398204e+001 -6.846954e+001  3.111617e+002
      vertex -4.462445e+001 -6.799310e+001  3.111617e+002
    endloop
  endfacet
  facet normal  0.000000e+000  0.000000e+000 -1.000000e+000
    outer loop
      vertex -1.165234e+001 -4.776958e+001  3.111617e+002
      vertex -4.462445e+001 -6.799310e+001  3.111617e+002
      vertex -4.531046e+001 -6.758192e+001  3.111617e+002
    endloop
  endfacet
  facet normal  0.000000e+000  0.000000e+000 -1.000000e+000
    outer loop
      vertex -1.165234e+001 -4.776958e+001  3.111617e+002
      vertex -4.531046e+001 -6.758192e+001  3.111617e+002
      vertex -4.603347e+001 -6.723996e+001  3.111617e+002
    endloop
  endfacet
  facet normal  0.000000e+000  0.000000e+000 -1.000000e+000
    outer loop
      vertex -1.165234e+001 -4.776958e+001  3.111617e+002
      vertex -4.603347e+001 -6.723996e+001  3.111617e+002
      vertex -8.665234e+001 -4.776958e+001  3.111617e+002
    endloop
  endfacet
  facet normal  0.000000e+000  0.000000e+000 -1.000000e+000
    outer loop
      vertex -8.665234e+001 -9.976958e+001  3.111617e+002
      vertex -8.665234e+001 -4.776958e+001  3.111617e+002
      vertex -5.730235e+001 -7.476958e+001  3.111617e+002
    endloop
  endfacet
  facet normal  0.000000e+000  -0.000000e+000 -9.999999e-001
    outer loop
      vertex -8.665234e+001 -9.976958e+001  3.111617e+002
      vertex -5.730235e+001 -7.476958e+001  3.111617e+002
      vertex -5.726310e+001 -7.556841e+001  3.111617e+002
    endloop
  endfacet
  facet normal  0.000000e+000  -0.000000e+000 -1.000000e+000
    outer loop
      vertex -8.665234e+001 -9.976958e+001  3.111617e+002
      vertex -5.726310e+001 -7.556841e+001  3.111617e+002
      vertex -5.714574e+001 -7.635956e+001  3.111617e+002
    endloop
  endfacet
  facet normal  0.000000e+000  -0.000000e+000 -1.000000e+000
    outer loop
      vertex -8.665234e+001 -9.976958e+001  3.111617e+002
      vertex -5.714574e+001 -7.635956e+001  3.111617e+002
      vertex -5.695141e+001 -7.713540e+001  3.111617e+002
    endloop
  endfacet
  facet normal  0.000000e+000  -0.000000e+000 -1.000000e+000
    outer loop
      vertex -8.665234e+001 -9.976958e+001  3.111617e+002
      vertex -5.695141e+001 -7.713540e+001  3.111617e+002
      vertex -5.668196e+001 -7.788844e+001  3.111617e+002
    endloop
  endfacet
  facet normal  0.000000e+000  -0.000000e+000 -1.000000e+000
    outer loop
      vertex -8.665234e+001 -9.976958e+001  3.111617e+002
      vertex -5.668196e+001 -7.788844e+001  3.111617e+002
      vertex -5.634000e+001 -7.861146e+001  3.111617e+002
    endloop
  endfacet
  facet normal  0.000000e+000  -0.000000e+000 -1.000000e+000
    outer loop
      vertex -8.665234e+001 -9.976958e+001  3.111617e+002
      vertex -5.634000e+001 -7.861146e+001  3.111617e+002
      vertex -5.592882e+001 -7.929747e+001  3.111617e+002
    endloop
  endfacet
  facet normal  0.000000e+000  -0.000000e+000 -1.000000e+000
    outer loop
      vertex -8.665234e+001 -9.976958e+001  3.111617e+002
      vertex -5.592882e+001 -7.929747e+001  3.111617e+002
      vertex -5.545238e+001 -7.993988e+001  3.111617e+002
    endloop
  endfacet
  facet normal  0.000000e+000  -0.000000e+000 -9.999999e-001
    outer loop
      vertex -8.665234e+001 -9.976958e+001  3.111617e+002
      vertex -5.545238e+001 -7.993988e+001  3.111617e+002
      vertex -5.491526e+001 -8.053249e+001  3.111617e+002
    endloop
  endfacet
  facet normal  0.000000e+000  -0.000000e+000 -1.000000e+000
    outer loop
      vertex -8.665234e+001 -9.976958e+001  3.111617e+002
      vertex -5.491526e+001 -8.053249e+001  3.111617e+002
      vertex -5.432265e+001 -8.106961e+001  3.111617e+002
    endloop
  endfacet
  facet normal  0.000000e+000  -0.000000e+000 -1.000000e+000
    outer loop
      vertex -8.665234e+001 -9.976958e+001  3.111617e+002
      vertex -5.432265e+001 -8.106961e+001  3.111617e+002
      vertex -5.368024e+001 -8.154605e+001  3.111617e+002
    endloop
  endfacet
  facet normal  0.000000e+000  -0.000000e+000 -1.000000e+000
    outer loop
      vertex -8.665234e+001 -9.976958e+001  3.111617e+002
      vertex -5.368024e+001 -8.154605e+001  3.111617e+002
      vertex -5.299423e+001 -8.195724e+001  3.111617e+002
    endloop
  endfacet
  facet normal  0.000000e+000  -0.000000e+000 -1.000000e+000
    outer loop
      vertex -8.665234e+001 -9.976958e+001  3.111617e+002
      vertex -5.299423e+001 -8.195724e+001  3.111617e+002
      vertex -5.227121e+001 -8.229919e+001  3.111617e+002
    endloop
  endfacet
  facet normal  0.000000e+000  -0.000000e+000 -1.000000e+000
    outer loop
      vertex -8.665234e+001 -9.976958e+001  3.111617e+002
      vertex -5.227121e+001 -8.229919e+001  3.111617e+002
      vertex -5.151817e+001 -8.256864e+001  3.111617e+002
    endloop
  endfacet
  facet normal  0.000000e+000  -0.000000e+000 -1.000000e+000
    outer loop
      vertex -8.665234e+001 -9.976958e+001  3.111617e+002
      vertex -5.151817e+001 -8.256864e+001  3.111617e+002
      vertex -5.074233e+001 -8.276298e+001  3.111617e+002
    endloop
  endfacet
  facet normal  0.000000e+000  -0.000000e+000 -1.000000e+000
    outer loop
      vertex -8.665234e+001 -9.976958e+001  3.111617e+002
      vertex -5.074233e+001 -8.276298e+001  3.111617e+002
      vertex -4.995118e+001 -8.288033e+001  3.111617e+002
    endloop
  endfacet
  facet normal  0.000000e+000  -0.000000e+000 -1.000000e+000
    outer loop
      vertex -8.665234e+001 -9.976958e+001  3.111617e+002
      vertex -4.995118e+001 -8.288033e+001  3.111617e+002
      vertex -4.915234e+001 -8.291958e+001  3.111617e+002
    endloop
  endfacet
  facet normal  0.000000e+000  -0.000000e+000 -1.000000e+000
    outer loop
      vertex -8.665234e+001 -9.976958e+001  3.111617e+002
      vertex -4.915234e+001 -8.291958e+001  3.111617e+002
      vertex -4.835350e+001 -8.288033e+001  3.111617e+002
    endloop
  endfacet
  facet normal  0.000000e+000  -0.000000e+000 -1.000000e+000
    outer loop
      vertex -8.665234e+001 -9.976958e+001  3.111617e+002
      vertex -4.835350e+001 -8.288033e+001  3.111617e+002
      vertex -4.756236e+001 -8.276298e+001  3.111617e+002
    endloop
  endfacet
  facet normal  0.000000e+000  -0.000000e+000 -1.000000e+000
    outer loop
      vertex -8.665234e+001 -9.976958e+001  3.111617e+002
      vertex -4.756236e+001 -8.276298e+001  3.111617e+002
      vertex -4.678652e+001 -8.256864e+001  3.111617e+002
    endloop
  endfacet
  facet normal  0.000000e+000  -0.000000e+000 -1.000000e+000
    outer loop
      vertex -8.665234e+001 -9.976958e+001  3.111617e+002
      vertex -4.678652e+001 -8.256864e+001  3.111617e+002
      vertex -4.603347e+001 -8.229919e+001  3.111617e+002
    endloop
  endfacet
  facet normal  0.000000e+000  0.000000e+000 -9.999999e-001
    outer loop
      vertex -8.665234e+001 -4.776958e+001  3.111617e+002
      vertex -4.603347e+001 -6.723996e+001  3.111617e+002
      vertex -4.678652e+001 -6.697051e+001  3.111617e+002
    endloop
  endfacet
  facet normal  0.000000e+000  0.000000e+000 -9.999999e-001
    outer loop
      vertex -8.665234e+001 -4.776958e+001  3.111617e+002
      vertex -4.678652e+001 -6.697051e+001  3.111617e+002
      vertex -4.756236e+001 -6.677618e+001  3.111617e+002
    endloop
  endfacet
  facet normal  0.000000e+000  0.000000e+000 -1.000000e+000
    outer loop
      vertex -8.665234e+001 -4.776958e+001  3.111617e+002
      vertex -4.756236e+001 -6.677618e+001  3.111617e+002
      vertex -4.835350e+001 -6.665882e+001  3.111617e+002
    endloop
  endfacet
  facet normal  0.000000e+000  0.000000e+000 -1.000000e+000
    outer loop
      vertex -8.665234e+001 -4.776958e+001  3.111617e+002
      vertex -4.835350e+001 -6.665882e+001  3.111617e+002
      vertex -4.915234e+001 -6.661958e+001  3.111617e+002
    endloop
  endfacet
  facet normal  -0.000000e+000  0.000000e+000 -1.000000e+000
    outer loop
      vertex -8.665234e+001 -4.776958e+001  3.111617e+002
      vertex -4.915234e+001 -6.661958e+001  3.111617e+002
      vertex -4.995118e+001 -6.665882e+001  3.111617e+002
    endloop
  endfacet
  facet normal  -0.000000e+000  0.000000e+000 -1.000000e+000
    outer loop
      vertex -8.665234e+001 -4.776958e+001  3.111617e+002
      vertex -4.995118e+001 -6.665882e+001  3.111617e+002
      vertex -5.074233e+001 -6.677618e+001  3.111617e+002
    endloop
  endfacet
  facet normal  -0.000000e+000  0.000000e+000 -1.000000e+000
    outer loop
      vertex -8.665234e+001 -4.776958e+001  3.111617e+002
      vertex -5.074233e+001 -6.677618e+001  3.111617e+002
      vertex -5.151817e+001 -6.697051e+001  3.111617e+002
    endloop
  endfacet
  facet normal  -0.000000e+000  0.000000e+000 -9.999999e-001
    outer loop
      vertex -8.665234e+001 -4.776958e+001  3.111617e+002
      vertex -5.151817e+001 -6.697051e+001  3.111617e+002
      vertex -5.227121e+001 -6.723996e+001  3.111617e+002
    endloop
  endfacet
  facet normal  -0.000000e+000  0.000000e+000 -1.000000e+000
    outer loop
      vertex -8.665234e+001 -4.776958e+001  3.111617e+002
      vertex -5.227121e+001 -6.723996e+001  3.111617e+002
      vertex -5.299423e+001 -6.758192e+001  3.111617e+002
    endloop
  endfacet
  facet normal  -0.000000e+000  0.000000e+000 -1.000000e+000
    outer loop
      vertex -8.665234e+001 -4.776958e+001  3.111617e+002
      vertex -5.299423e+001 -6.758192e+001  3.111617e+002
      vertex -5.368024e+001 -6.799310e+001  3.111617e+002
    endloop
  endfacet
  facet normal  -0.000000e+000  0.000000e+000 -9.999999e-001
    outer loop
      vertex -8.665234e+001 -4.776958e+001  3.111617e+002
      vertex -5.368024e+001 -6.799310e+001  3.111617e+002
      vertex -5.432265e+001 -6.846954e+001  3.111617e+002
    endloop
  endfacet
  facet normal  -0.000000e+000  0.000000e+000 -9.999999e-001
    outer loop
      vertex -8.665234e+001 -4.776958e+001  3.111617e+002
      vertex -5.432265e+001 -6.846954e+001  3.111617e+002
      vertex -5.491526e+001 -6.900665e+001  3.111617e+002
    endloop
  endfacet
  facet normal  -0.000000e+000  0.000000e+000 -9.999999e-001
    outer loop
      vertex -8.665234e+001 -4.776958e+001  3.111617e+002
      vertex -5.491526e+001 -6.900665e+001  3.111617e+002
      vertex -5.545238e+001 -6.959927e+001  3.111617e+002
    endloop
  endfacet
  facet normal  -0.000000e+000  0.000000e+000 -1.000000e+000
    outer loop
      vertex -8.665234e+001 -4.776958e+001  3.111617e+002
      vertex -5.545238e+001 -6.959927e+001  3.111617e+002
      vertex -5.592882e+001 -7.024168e+001  3.111617e+002
    endloop
  endfacet
  facet normal  -0.000000e+000  0.000000e+000 -1.000000e+000
    outer loop
      vertex -8.665234e+001 -4.776958e+001  3.111617e+002
      vertex -5.592882e+001 -7.024168e+001  3.111617e+002
      vertex -5.634000e+001 -7.092769e+001  3.111617e+002
    endloop
  endfacet
  facet normal  -0.000000e+000  0.000000e+000 -1.000000e+000
    outer loop
      vertex -8.665234e+001 -4.776958e+001  3.111617e+002
      vertex -5.634000e+001 -7.092769e+001  3.111617e+002
      vertex -5.668196e+001 -7.165070e+001  3.111617e+002
    endloop
  endfacet
  facet normal  -0.000000e+000  0.000000e+000 -1.000000e+000
    outer loop
      vertex -8.665234e+001 -4.776958e+001  3.111617e+002
      vertex -5.668196e+001 -7.165070e+001  3.111617e+002
      vertex -5.695141e+001 -7.240376e+001  3.111617e+002
    endloop
  endfacet
  facet normal  -0.000000e+000  0.000000e+000 -1.000000e+000
    outer loop
      vertex -8.665234e+001 -4.776958e+001  3.111617e+002
      vertex -5.695141e+001 -7.240376e+001  3.111617e+002
      vertex -5.714574e+001 -7.317959e+001  3.111617e+002
    endloop
  endfacet
  facet normal  -0.000000e+000  0.000000e+000 -1.000000e+000
    outer loop
      vertex -8.665234e+001 -4.776958e+001  3.111617e+002
      vertex -5.714574e+001 -7.317959e+001  3.111617e+002
      vertex -5.726310e+001 -7.397073e+001  3.111617e+002
    endloop
  endfacet
  facet normal  -0.000000e+000  0.000000e+000 -1.000000e+000
    outer loop
      vertex -8.665234e+001 -4.776958e+001  3.111617e+002
      vertex -5.726310e+001 -7.397073e+001  3.111617e+002
      vertex -5.730235e+001 -7.476958e+001  3.111617e+002
    endloop
  endfacet
  facet normal  4.906909e-002  9.987954e-001  -0.000000e+000
    outer loop
      vertex -4.915234e+001 -8.291958e+001  3.141617e+002
      vertex -4.995118e+001 -8.288033e+001  3.111617e+002
      vertex -4.995118e+001 -8.288033e+001  3.141617e+002
    endloop
  endfacet
  facet normal  1.467305e-001  9.891765e-001  0.000000e+000
    outer loop
      vertex -4.995118e+001 -8.288033e+001  3.141617e+002
      vertex -4.995118e+001 -8.288033e+001  3.111617e+002
      vertex -5.074233e+001 -8.276298e+001  3.111617e+002
    endloop
  endfacet
  facet normal  1.467305e-001  9.891765e-001  -0.000000e+000
    outer loop
      vertex -4.995118e+001 -8.288033e+001  3.141617e+002
      vertex -5.074233e+001 -8.276298e+001  3.111617e+002
      vertex -5.074233e+001 -8.276298e+001  3.141617e+002
    endloop
  endfacet
  facet normal  2.429789e-001  9.700316e-001  0.000000e+000
    outer loop
      vertex -5.074233e+001 -8.276298e+001  3.141617e+002
      vertex -5.074233e+001 -8.276298e+001  3.111617e+002
      vertex -5.151817e+001 -8.256864e+001  3.111617e+002
    endloop
  endfacet
  facet normal  2.429789e-001  9.700316e-001  -0.000000e+000
    outer loop
      vertex -5.074233e+001 -8.276298e+001  3.141617e+002
      vertex -5.151817e+001 -8.256864e+001  3.111617e+002
      vertex -5.151817e+001 -8.256864e+001  3.141617e+002
    endloop
  endfacet
  facet normal  3.368926e-001  9.415430e-001  0.000000e+000
    outer loop
      vertex -5.151817e+001 -8.256864e+001  3.141617e+002
      vertex -5.151817e+001 -8.256864e+001  3.111617e+002
      vertex -5.227121e+001 -8.229919e+001  3.111617e+002
    endloop
  endfacet
  facet normal  3.368926e-001  9.415430e-001  -0.000000e+000
    outer loop
      vertex -5.151817e+001 -8.256864e+001  3.141617e+002
      vertex -5.227121e+001 -8.229919e+001  3.111617e+002
      vertex -5.227121e+001 -8.229919e+001  3.141617e+002
    endloop
  endfacet
  facet normal  4.275516e-001  9.039909e-001  0.000000e+000
    outer loop
      vertex -5.227121e+001 -8.229919e+001  3.141617e+002
      vertex -5.227121e+001 -8.229919e+001  3.111617e+002
      vertex -5.299423e+001 -8.195724e+001  3.111617e+002
    endloop
  endfacet
  facet normal  4.275516e-001  9.039909e-001  -0.000000e+000
    outer loop
      vertex -5.227121e+001 -8.229919e+001  3.141617e+002
      vertex -5.299423e+001 -8.195724e+001  3.111617e+002
      vertex -5.299423e+001 -8.195724e+001  3.141617e+002
    endloop
  endfacet
  facet normal  5.141085e-001  8.577251e-001  0.000000e+000
    outer loop
      vertex -5.299423e+001 -8.195724e+001  3.141617e+002
      vertex -5.299423e+001 -8.195724e+001  3.111617e+002
      vertex -5.368024e+001 -8.154605e+001  3.111617e+002
    endloop
  endfacet
  facet normal  5.141085e-001  8.577251e-001  -0.000000e+000
    outer loop
      vertex -5.299423e+001 -8.195724e+001  3.141617e+002
      vertex -5.368024e+001 -8.154605e+001  3.111617e+002
      vertex -5.368024e+001 -8.154605e+001  3.141617e+002
    endloop
  endfacet
  facet normal  5.956965e-001  8.032097e-001  0.000000e+000
    outer loop
      vertex -5.368024e+001 -8.154605e+001  3.141617e+002
      vertex -5.368024e+001 -8.154605e+001  3.111617e+002
      vertex -5.432265e+001 -8.106961e+001  3.111617e+002
    endloop
  endfacet
  facet normal  5.956965e-001  8.032097e-001  -0.000000e+000
    outer loop
      vertex -5.368024e+001 -8.154605e+001  3.141617e+002
      vertex -5.432265e+001 -8.106961e+001  3.111617e+002
      vertex -5.432265e+001 -8.106961e+001  3.141617e+002
    endloop
  endfacet
  facet normal  6.715615e-001  7.409488e-001  0.000000e+000
    outer loop
      vertex -5.432265e+001 -8.106961e+001  3.141617e+002
      vertex -5.432265e+001 -8.106961e+001  3.111617e+002
      vertex -5.491526e+001 -8.053249e+001  3.111617e+002
    endloop
  endfacet
  facet normal  6.715615e-001  7.409488e-001  -0.000000e+000
    outer loop
      vertex -5.432265e+001 -8.106961e+001  3.141617e+002
      vertex -5.491526e+001 -8.053249e+001  3.111617e+002
      vertex -5.491526e+001 -8.053249e+001  3.141617e+002
    endloop
  endfacet
  facet normal  7.409512e-001  6.715588e-001  0.000000e+000
    outer loop
      vertex -5.491526e+001 -8.053249e+001  3.141617e+002
      vertex -5.491526e+001 -8.053249e+001  3.111617e+002
      vertex -5.545238e+001 -7.993988e+001  3.111617e+002
    endloop
  endfacet
  facet normal  7.409512e-001  6.715588e-001  -0.000000e+000
    outer loop
      vertex -5.491526e+001 -8.053249e+001  3.141617e+002
      vertex -5.545238e+001 -7.993988e+001  3.111617e+002
      vertex -5.545238e+001 -7.993988e+001  3.141617e+002
    endloop
  endfacet
  facet normal  8.032073e-001  5.956995e-001  0.000000e+000
    outer loop
      vertex -5.545238e+001 -7.993988e+001  3.141617e+002
      vertex -5.545238e+001 -7.993988e+001  3.111617e+002
      vertex -5.592882e+001 -7.929747e+001  3.111617e+002
    endloop
  endfacet
  facet normal  8.032073e-001  5.956995e-001  -0.000000e+000
    outer loop
      vertex -5.545238e+001 -7.993988e+001  3.141617e+002
      vertex -5.592882e+001 -7.929747e+001  3.111617e+002
      vertex -5.592882e+001 -7.929747e+001  3.141617e+002
    endloop
  endfacet
  facet normal  8.577273e-001  5.141050e-001  0.000000e+000
    outer loop
      vertex -5.592882e+001 -7.929747e+001  3.141617e+002
      vertex -5.592882e+001 -7.929747e+001  3.111617e+002
      vertex -5.634000e+001 -7.861146e+001  3.111617e+002
    endloop
  endfacet
  facet normal  8.577273e-001  5.141050e-001  -0.000000e+000
    outer loop
      vertex -5.592882e+001 -7.929747e+001  3.141617e+002
      vertex -5.634000e+001 -7.861146e+001  3.111617e+002
      vertex -5.634000e+001 -7.861146e+001  3.141617e+002
    endloop
  endfacet
  facet normal  9.039909e-001  4.275516e-001  0.000000e+000
    outer loop
      vertex -5.634000e+001 -7.861146e+001  3.141617e+002
      vertex -5.634000e+001 -7.861146e+001  3.111617e+002
      vertex -5.668196e+001 -7.788844e+001  3.111617e+002
    endloop
  endfacet
  facet normal  9.039909e-001  4.275516e-001  -0.000000e+000
    outer loop
      vertex -5.634000e+001 -7.861146e+001  3.141617e+002
      vertex -5.668196e+001 -7.788844e+001  3.111617e+002
      vertex -5.668196e+001 -7.788844e+001  3.141617e+002
    endloop
  endfacet
  facet normal  9.415425e-001  3.368941e-001  0.000000e+000
    outer loop
      vertex -5.668196e+001 -7.788844e+001  3.141617e+002
      vertex -5.668196e+001 -7.788844e+001  3.111617e+002
      vertex -5.695141e+001 -7.713540e+001  3.111617e+002
    endloop
  endfacet
  facet normal  9.415425e-001  3.368941e-001  -0.000000e+000
    outer loop
      vertex -5.668196e+001 -7.788844e+001  3.141617e+002
      vertex -5.695141e+001 -7.713540e+001  3.111617e+002
      vertex -5.695141e+001 -7.713540e+001  3.141617e+002
    endloop
  endfacet
  facet normal  9.700319e-001  2.429778e-001  0.000000e+000
    outer loop
      vertex -5.695141e+001 -7.713540e+001  3.141617e+002
      vertex -5.695141e+001 -7.713540e+001  3.111617e+002
      vertex -5.714574e+001 -7.635956e+001  3.111617e+002
    endloop
  endfacet
  facet normal  9.700319e-001  2.429778e-001  -0.000000e+000
    outer loop
      vertex -5.695141e+001 -7.713540e+001  3.141617e+002
      vertex -5.714574e+001 -7.635956e+001  3.111617e+002
      vertex -5.714574e+001 -7.635956e+001  3.141617e+002
    endloop
  endfacet
  facet normal  9.891765e-001  1.467305e-001  0.000000e+000
    outer loop
      vertex -5.714574e+001 -7.635956e+001  3.141617e+002
      vertex -5.714574e+001 -7.635956e+001  3.111617e+002
      vertex -5.726310e+001 -7.556841e+001  3.111617e+002
    endloop
  endfacet
  facet normal  9.891765e-001  1.467305e-001  -0.000000e+000
    outer loop
      vertex -5.714574e+001 -7.635956e+001  3.141617e+002
      vertex -5.726310e+001 -7.556841e+001  3.111617e+002
      vertex -5.726310e+001 -7.556841e+001  3.141617e+002
    endloop
  endfacet
  facet normal  9.987953e-001  4.906932e-002  0.000000e+000
    outer loop
      vertex -5.726310e+001 -7.556841e+001  3.141617e+002
      vertex -5.726310e+001 -7.556841e+001  3.111617e+002
      vertex -5.730235e+001 -7.476958e+001  3.111617e+002
    endloop
  endfacet
  facet normal  9.987953e-001  4.906932e-002  -0.000000e+000
    outer loop
      vertex -5.726310e+001 -7.556841e+001  3.141617e+002
      vertex -5.730235e+001 -7.476958e+001  3.111617e+002
      vertex -5.730235e+001 -7.476958e+001  3.141617e+002
    endloop
  endfacet
  facet normal  4.906909e-002  9.987954e-001  0.000000e+000
    outer loop
      vertex -4.995118e+001 -8.288033e+001  3.111617e+002
      vertex -4.915234e+001 -8.291958e+001  3.141617e+002
      vertex -4.915234e+001 -8.291958e+001  3.111617e+002
    endloop
  endfacet
  facet normal -4.906909e-002  9.987954e-001  0.000000e+000
    outer loop
      vertex -4.915234e+001 -8.291958e+001  3.111617e+002
      vertex -4.915234e+001 -8.291958e+001  3.141617e+002
      vertex -4.835350e+001 -8.288033e+001  3.141617e+002
    endloop
  endfacet
  facet normal -4.906909e-002  9.987954e-001  0.000000e+000
    outer loop
      vertex -4.915234e+001 -8.291958e+001  3.111617e+002
      vertex -4.835350e+001 -8.288033e+001  3.141617e+002
      vertex -4.835350e+001 -8.288033e+001  3.111617e+002
    endloop
  endfacet
  facet normal -1.467305e-001  9.891765e-001  0.000000e+000
    outer loop
      vertex -4.835350e+001 -8.288033e+001  3.111617e+002
      vertex -4.835350e+001 -8.288033e+001  3.141617e+002
      vertex -4.756236e+001 -8.276298e+001  3.141617e+002
    endloop
  endfacet
  facet normal -1.467305e-001  9.891765e-001  0.000000e+000
    outer loop
      vertex -4.835350e+001 -8.288033e+001  3.111617e+002
      vertex -4.756236e+001 -8.276298e+001  3.141617e+002
      vertex -4.756236e+001 -8.276298e+001  3.111617e+002
    endloop
  endfacet
  facet normal -2.429789e-001  9.700316e-001  0.000000e+000
    outer loop
      vertex -4.756236e+001 -8.276298e+001  3.111617e+002
      vertex -4.756236e+001 -8.276298e+001  3.141617e+002
      vertex -4.678652e+001 -8.256864e+001  3.141617e+002
    endloop
  endfacet
  facet normal -2.429789e-001  9.700316e-001  0.000000e+000
    outer loop
      vertex -4.756236e+001 -8.276298e+001  3.111617e+002
      vertex -4.678652e+001 -8.256864e+001  3.141617e+002
      vertex -4.678652e+001 -8.256864e+001  3.111617e+002
    endloop
  endfacet
  facet normal -3.368926e-001  9.415430e-001  0.000000e+000
    outer loop
      vertex -4.678652e+001 -8.256864e+001  3.111617e+002
      vertex -4.678652e+001 -8.256864e+001  3.141617e+002
      vertex -4.603347e+001 -8.229919e+001  3.141617e+002
    endloop
  endfacet
  facet normal -3.368926e-001  9.415430e-001  0.000000e+000
    outer loop
      vertex -4.678652e+001 -8.256864e+001  3.111617e+002
      vertex -4.603347e+001 -8.229919e+001  3.141617e+002
      vertex -4.603347e+001 -8.229919e+001  3.111617e+002
    endloop
  endfacet
  facet normal -4.275516e-001  9.039909e-001  0.000000e+000
    outer loop
      vertex -4.603347e+001 -8.229919e+001  3.111617e+002
      vertex -4.603347e+001 -8.229919e+001  3.141617e+002
      vertex -4.531046e+001 -8.195724e+001  3.141617e+002
    endloop
  endfacet
  facet normal -4.275516e-001  9.039909e-001  0.000000e+000
    outer loop
      vertex -4.603347e+001 -8.229919e+001  3.111617e+002
      vertex -4.531046e+001 -8.195724e+001  3.141617e+002
      vertex -4.531046e+001 -8.195724e+001  3.111617e+002
    endloop
  endfacet
  facet normal -5.141085e-001  8.577251e-001  0.000000e+000
    outer loop
      vertex -4.531046e+001 -8.195724e+001  3.111617e+002
      vertex -4.531046e+001 -8.195724e+001  3.141617e+002
      vertex -4.462445e+001 -8.154605e+001  3.141617e+002
    endloop
  endfacet
  facet normal -5.141085e-001  8.577251e-001  0.000000e+000
    outer loop
      vertex -4.531046e+001 -8.195724e+001  3.111617e+002
      vertex -4.462445e+001 -8.154605e+001  3.141617e+002
      vertex -4.462445e+001 -8.154605e+001  3.111617e+002
    endloop
  endfacet
  facet normal -5.956988e-001  8.032079e-001  0.000000e+000
    outer loop
      vertex -4.462445e+001 -8.154605e+001  3.111617e+002
      vertex -4.462445e+001 -8.154605e+001  3.141617e+002
      vertex -4.398204e+001 -8.106961e+001  3.141617e+002
    endloop
  endfacet
  facet normal -5.956988e-001  8.032079e-001  0.000000e+000
    outer loop
      vertex -4.462445e+001 -8.154605e+001  3.111617e+002
      vertex -4.398204e+001 -8.106961e+001  3.141617e+002
      vertex -4.398204e+001 -8.106961e+001  3.111617e+002
    endloop
  endfacet
  facet normal -6.715592e-001  7.409510e-001  0.000000e+000
    outer loop
      vertex -4.398204e+001 -8.106961e+001  3.111617e+002
      vertex -4.398204e+001 -8.106961e+001  3.141617e+002
      vertex -4.338942e+001 -8.053249e+001  3.141617e+002
    endloop
  endfacet
  facet normal -6.715592e-001  7.409510e-001  0.000000e+000
    outer loop
      vertex -4.398204e+001 -8.106961e+001  3.111617e+002
      vertex -4.338942e+001 -8.053249e+001  3.141617e+002
      vertex -4.338942e+001 -8.053249e+001  3.111617e+002
    endloop
  endfacet
  facet normal -7.409512e-001  6.715588e-001  0.000000e+000
    outer loop
      vertex -4.338942e+001 -8.053249e+001  3.111617e+002
      vertex -4.338942e+001 -8.053249e+001  3.141617e+002
      vertex -4.285231e+001 -7.993988e+001  3.141617e+002
    endloop
  endfacet
  facet normal -7.409512e-001  6.715588e-001  0.000000e+000
    outer loop
      vertex -4.338942e+001 -8.053249e+001  3.111617e+002
      vertex -4.285231e+001 -7.993988e+001  3.141617e+002
      vertex -4.285231e+001 -7.993988e+001  3.111617e+002
    endloop
  endfacet
  facet normal -8.032073e-001  5.956995e-001  0.000000e+000
    outer loop
      vertex -4.285231e+001 -7.993988e+001  3.111617e+002
      vertex -4.285231e+001 -7.993988e+001  3.141617e+002
      vertex -4.237587e+001 -7.929747e+001  3.141617e+002
    endloop
  endfacet
  facet normal -8.032073e-001  5.956995e-001  0.000000e+000
    outer loop
      vertex -4.285231e+001 -7.993988e+001  3.111617e+002
      vertex -4.237587e+001 -7.929747e+001  3.141617e+002
      vertex -4.237587e+001 -7.929747e+001  3.111617e+002
    endloop
  endfacet
  facet normal -8.577294e-001  5.141015e-001  0.000000e+000
    outer loop
      vertex -4.237587e+001 -7.929747e+001  3.111617e+002
      vertex -4.237587e+001 -7.929747e+001  3.141617e+002
      vertex -4.196469e+001 -7.861146e+001  3.141617e+002
    endloop
  endfacet
  facet normal -8.577294e-001  5.141015e-001  0.000000e+000
    outer loop
      vertex -4.237587e+001 -7.929747e+001  3.111617e+002
      vertex -4.196469e+001 -7.861146e+001  3.141617e+002
      vertex -4.196469e+001 -7.861146e+001  3.111617e+002
    endloop
  endfacet
  facet normal -9.039891e-001  4.275555e-001  0.000000e+000
    outer loop
      vertex -4.196469e+001 -7.861146e+001  3.111617e+002
      vertex -4.196469e+001 -7.861146e+001  3.141617e+002
      vertex -4.162273e+001 -7.788844e+001  3.141617e+002
    endloop
  endfacet
  facet normal -9.039891e-001  4.275555e-001  0.000000e+000
    outer loop
      vertex -4.196469e+001 -7.861146e+001  3.111617e+002
      vertex -4.162273e+001 -7.788844e+001  3.141617e+002
      vertex -4.162273e+001 -7.788844e+001  3.111617e+002
    endloop
  endfacet
  facet normal -9.415425e-001  3.368941e-001  0.000000e+000
    outer loop
      vertex -4.162273e+001 -7.788844e+001  3.111617e+002
      vertex -4.162273e+001 -7.788844e+001  3.141617e+002
      vertex -4.135328e+001 -7.713540e+001  3.141617e+002
    endloop
  endfacet
  facet normal -9.415425e-001  3.368941e-001  0.000000e+000
    outer loop
      vertex -4.162273e+001 -7.788844e+001  3.111617e+002
      vertex -4.135328e+001 -7.713540e+001  3.141617e+002
      vertex -4.135328e+001 -7.713540e+001  3.111617e+002
    endloop
  endfacet
  facet normal -9.700319e-001  2.429778e-001  0.000000e+000
    outer loop
      vertex -4.135328e+001 -7.713540e+001  3.111617e+002
      vertex -4.135328e+001 -7.713540e+001  3.141617e+002
      vertex -4.115894e+001 -7.635956e+001  3.141617e+002
    endloop
  endfacet
  facet normal -9.700319e-001  2.429778e-001  0.000000e+000
    outer loop
      vertex -4.135328e+001 -7.713540e+001  3.111617e+002
      vertex -4.115894e+001 -7.635956e+001  3.141617e+002
      vertex -4.115894e+001 -7.635956e+001  3.111617e+002
    endloop
  endfacet
  facet normal -9.891765e-001  1.467305e-001  0.000000e+000
    outer loop
      vertex -4.115894e+001 -7.635956e+001  3.111617e+002
      vertex -4.115894e+001 -7.635956e+001  3.141617e+002
      vertex -4.104159e+001 -7.556841e+001  3.141617e+002
    endloop
  endfacet
  facet normal -9.891765e-001  1.467305e-001  0.000000e+000
    outer loop
      vertex -4.115894e+001 -7.635956e+001  3.111617e+002
      vertex -4.104159e+001 -7.556841e+001  3.141617e+002
      vertex -4.104159e+001 -7.556841e+001  3.111617e+002
    endloop
  endfacet
  facet normal -9.987953e-001  4.906932e-002  0.000000e+000
    outer loop
      vertex -4.104159e+001 -7.556841e+001  3.111617e+002
      vertex -4.104159e+001 -7.556841e+001  3.141617e+002
      vertex -4.100234e+001 -7.476958e+001  3.141617e+002
    endloop
  endfacet
  facet normal -9.987953e-001  4.906932e-002  0.000000e+000
    outer loop
      vertex -4.104159e+001 -7.556841e+001  3.111617e+002
      vertex -4.100234e+001 -7.476958e+001  3.141617e+002
      vertex -4.100234e+001 -7.476958e+001  3.111617e+002
    endloop
  endfacet
  facet normal -4.906909e-002 -9.987954e-001  0.000000e+000
    outer loop
      vertex -4.915234e+001 -6.661958e+001  3.141617e+002
      vertex -4.835350e+001 -6.665882e+001  3.111617e+002
      vertex -4.835350e+001 -6.665882e+001  3.141617e+002
    endloop
  endfacet
  facet normal -1.467305e-001 -9.891765e-001  -0.000000e+000
    outer loop
      vertex -4.835350e+001 -6.665882e+001  3.141617e+002
      vertex -4.835350e+001 -6.665882e+001  3.111617e+002
      vertex -4.756236e+001 -6.677618e+001  3.111617e+002
    endloop
  endfacet
  facet normal -1.467305e-001 -9.891765e-001  0.000000e+000
    outer loop
      vertex -4.835350e+001 -6.665882e+001  3.141617e+002
      vertex -4.756236e+001 -6.677618e+001  3.111617e+002
      vertex -4.756236e+001 -6.677618e+001  3.141617e+002
    endloop
  endfacet
  facet normal -2.429789e-001 -9.700316e-001  -0.000000e+000
    outer loop
      vertex -4.756236e+001 -6.677618e+001  3.141617e+002
      vertex -4.756236e+001 -6.677618e+001  3.111617e+002
      vertex -4.678652e+001 -6.697051e+001  3.111617e+002
    endloop
  endfacet
  facet normal -2.429789e-001 -9.700316e-001  0.000000e+000
    outer loop
      vertex -4.756236e+001 -6.677618e+001  3.141617e+002
      vertex -4.678652e+001 -6.697051e+001  3.111617e+002
      vertex -4.678652e+001 -6.697051e+001  3.141617e+002
    endloop
  endfacet
  facet normal -3.368926e-001 -9.415430e-001  -0.000000e+000
    outer loop
      vertex -4.678652e+001 -6.697051e+001  3.141617e+002
      vertex -4.678652e+001 -6.697051e+001  3.111617e+002
      vertex -4.603347e+001 -6.723996e+001  3.111617e+002
    endloop
  endfacet
  facet normal -3.368926e-001 -9.415430e-001  0.000000e+000
    outer loop
      vertex -4.678652e+001 -6.697051e+001  3.141617e+002
      vertex -4.603347e+001 -6.723996e+001  3.111617e+002
      vertex -4.603347e+001 -6.723996e+001  3.141617e+002
    endloop
  endfacet
  facet normal -4.275516e-001 -9.039909e-001  -0.000000e+000
    outer loop
      vertex -4.603347e+001 -6.723996e+001  3.141617e+002
      vertex -4.603347e+001 -6.723996e+001  3.111617e+002
      vertex -4.531046e+001 -6.758192e+001  3.111617e+002
    endloop
  endfacet
  facet normal -4.275516e-001 -9.039909e-001  0.000000e+000
    outer loop
      vertex -4.603347e+001 -6.723996e+001  3.141617e+002
      vertex -4.531046e+001 -6.758192e+001  3.111617e+002
      vertex -4.531046e+001 -6.758192e+001  3.141617e+002
    endloop
  endfacet
  facet normal -5.141015e-001 -8.577294e-001  -0.000000e+000
    outer loop
      vertex -4.531046e+001 -6.758192e+001  3.141617e+002
      vertex -4.531046e+001 -6.758192e+001  3.111617e+002
      vertex -4.462445e+001 -6.799310e+001  3.111617e+002
    endloop
  endfacet
  facet normal -5.141015e-001 -8.577294e-001  0.000000e+000
    outer loop
      vertex -4.531046e+001 -6.758192e+001  3.141617e+002
      vertex -4.462445e+001 -6.799310e+001  3.111617e+002
      vertex -4.462445e+001 -6.799310e+001  3.141617e+002
    endloop
  endfacet
  facet normal -5.957049e-001 -8.032034e-001  -0.000000e+000
    outer loop
      vertex -4.462445e+001 -6.799310e+001  3.141617e+002
      vertex -4.462445e+001 -6.799310e+001  3.111617e+002
      vertex -4.398204e+001 -6.846954e+001  3.111617e+002
    endloop
  endfacet
  facet normal -5.957049e-001 -8.032034e-001  0.000000e+000
    outer loop
      vertex -4.462445e+001 -6.799310e+001  3.141617e+002
      vertex -4.398204e+001 -6.846954e+001  3.111617e+002
      vertex -4.398204e+001 -6.846954e+001  3.141617e+002
    endloop
  endfacet
  facet normal -6.715539e-001 -7.409557e-001  -0.000000e+000
    outer loop
      vertex -4.398204e+001 -6.846954e+001  3.141617e+002
      vertex -4.398204e+001 -6.846954e+001  3.111617e+002
      vertex -4.338942e+001 -6.900665e+001  3.111617e+002
    endloop
  endfacet
  facet normal -6.715539e-001 -7.409557e-001  0.000000e+000
    outer loop
      vertex -4.398204e+001 -6.846954e+001  3.141617e+002
      vertex -4.338942e+001 -6.900665e+001  3.111617e+002
      vertex -4.338942e+001 -6.900665e+001  3.141617e+002
    endloop
  endfacet
  facet normal -7.409555e-001 -6.715541e-001  -0.000000e+000
    outer loop
      vertex -4.338942e+001 -6.900665e+001  3.141617e+002
      vertex -4.338942e+001 -6.900665e+001  3.111617e+002
      vertex -4.285231e+001 -6.959927e+001  3.111617e+002
    endloop
  endfacet
  facet normal -7.409555e-001 -6.715541e-001  0.000000e+000
    outer loop
      vertex -4.338942e+001 -6.900665e+001  3.141617e+002
      vertex -4.285231e+001 -6.959927e+001  3.111617e+002
      vertex -4.285231e+001 -6.959927e+001  3.141617e+002
    endloop
  endfacet
  facet normal -8.032040e-001 -5.957041e-001  -0.000000e+000
    outer loop
      vertex -4.285231e+001 -6.959927e+001  3.141617e+002
      vertex -4.285231e+001 -6.959927e+001  3.111617e+002
      vertex -4.237587e+001 -7.024168e+001  3.111617e+002
    endloop
  endfacet
  facet normal -8.032040e-001 -5.957041e-001  0.000000e+000
    outer loop
      vertex -4.285231e+001 -6.959927e+001  3.141617e+002
      vertex -4.237587e+001 -7.024168e+001  3.111617e+002
      vertex -4.237587e+001 -7.024168e+001  3.141617e+002
    endloop
  endfacet
  facet normal -8.577294e-001 -5.141015e-001  -0.000000e+000
    outer loop
      vertex -4.237587e+001 -7.024168e+001  3.141617e+002
      vertex -4.237587e+001 -7.024168e+001  3.111617e+002
      vertex -4.196469e+001 -7.092769e+001  3.111617e+002
    endloop
  endfacet
  facet normal -8.577294e-001 -5.141015e-001  0.000000e+000
    outer loop
      vertex -4.237587e+001 -7.024168e+001  3.141617e+002
      vertex -4.196469e+001 -7.092769e+001  3.111617e+002
      vertex -4.196469e+001 -7.092769e+001  3.141617e+002
    endloop
  endfacet
  facet normal -9.039891e-001 -4.275555e-001  -0.000000e+000
    outer loop
      vertex -4.196469e+001 -7.092769e+001  3.141617e+002
      vertex -4.196469e+001 -7.092769e+001  3.111617e+002
      vertex -4.162273e+001 -7.165070e+001  3.111617e+002
    endloop
  endfacet
  facet normal -9.039891e-001 -4.275555e-001  0.000000e+000
    outer loop
      vertex -4.196469e+001 -7.092769e+001  3.141617e+002
      vertex -4.162273e+001 -7.165070e+001  3.111617e+002
      vertex -4.162273e+001 -7.165070e+001  3.141617e+002
    endloop
  endfacet
  facet normal -9.415436e-001 -3.368911e-001  -0.000000e+000
    outer loop
      vertex -4.162273e+001 -7.165070e+001  3.141617e+002
      vertex -4.162273e+001 -7.165070e+001  3.111617e+002
      vertex -4.135328e+001 -7.240376e+001  3.111617e+002
    endloop
  endfacet
  facet normal -9.415436e-001 -3.368911e-001  0.000000e+000
    outer loop
      vertex -4.162273e+001 -7.165070e+001  3.141617e+002
      vertex -4.135328e+001 -7.240376e+001  3.111617e+002
      vertex -4.135328e+001 -7.240376e+001  3.141617e+002
    endloop
  endfacet
  facet normal -9.700313e-001 -2.429800e-001  -0.000000e+000
    outer loop
      vertex -4.135328e+001 -7.240376e+001  3.141617e+002
      vertex -4.135328e+001 -7.240376e+001  3.111617e+002
      vertex -4.115894e+001 -7.317959e+001  3.111617e+002
    endloop
  endfacet
  facet normal -9.700313e-001 -2.429800e-001  0.000000e+000
    outer loop
      vertex -4.135328e+001 -7.240376e+001  3.141617e+002
      vertex -4.115894e+001 -7.317959e+001  3.111617e+002
      vertex -4.115894e+001 -7.317959e+001  3.141617e+002
    endloop
  endfacet
  facet normal -9.891765e-001 -1.467305e-001  -0.000000e+000
    outer loop
      vertex -4.115894e+001 -7.317959e+001  3.141617e+002
      vertex -4.115894e+001 -7.317959e+001  3.111617e+002
      vertex -4.104159e+001 -7.397073e+001  3.111617e+002
    endloop
  endfacet
  facet normal -9.891765e-001 -1.467305e-001  0.000000e+000
    outer loop
      vertex -4.115894e+001 -7.317959e+001  3.141617e+002
      vertex -4.104159e+001 -7.397073e+001  3.111617e+002
      vertex -4.104159e+001 -7.397073e+001  3.141617e+002
    endloop
  endfacet
  facet normal -9.987954e-001 -4.906885e-002  -0.000000e+000
    outer loop
      vertex -4.104159e+001 -7.397073e+001  3.141617e+002
      vertex -4.104159e+001 -7.397073e+001  3.111617e+002
      vertex -4.100234e+001 -7.476958e+001  3.111617e+002
    endloop
  endfacet
  facet normal -9.987954e-001 -4.906885e-002  0.000000e+000
    outer loop
      vertex -4.104159e+001 -7.397073e+001  3.141617e+002
      vertex -4.100234e+001 -7.476958e+001  3.111617e+002
      vertex -4.100234e+001 -7.476958e+001  3.141617e+002
    endloop
  endfacet
  facet normal -4.906909e-002 -9.987954e-001  -0.000000e+000
    outer loop
      vertex -4.835350e+001 -6.665882e+001  3.111617e+002
      vertex -4.915234e+001 -6.661958e+001  3.141617e+002
      vertex -4.915234e+001 -6.661958e+001  3.111617e+002
    endloop
  endfacet
  facet normal  4.906909e-002 -9.987954e-001  0.000000e+000
    outer loop
      vertex -4.915234e+001 -6.661958e+001  3.111617e+002
      vertex -4.915234e+001 -6.661958e+001  3.141617e+002
      vertex -4.995118e+001 -6.665882e+001  3.141617e+002
    endloop
  endfacet
  facet normal  4.906909e-002 -9.987954e-001  0.000000e+000
    outer loop
      vertex -4.915234e+001 -6.661958e+001  3.111617e+002
      vertex -4.995118e+001 -6.665882e+001  3.141617e+002
      vertex -4.995118e+001 -6.665882e+001  3.111617e+002
    endloop
  endfacet
  facet normal  1.467305e-001 -9.891765e-001  0.000000e+000
    outer loop
      vertex -4.995118e+001 -6.665882e+001  3.111617e+002
      vertex -4.995118e+001 -6.665882e+001  3.141617e+002
      vertex -5.074233e+001 -6.677618e+001  3.141617e+002
    endloop
  endfacet
  facet normal  1.467305e-001 -9.891765e-001  0.000000e+000
    outer loop
      vertex -4.995118e+001 -6.665882e+001  3.111617e+002
      vertex -5.074233e+001 -6.677618e+001  3.141617e+002
      vertex -5.074233e+001 -6.677618e+001  3.111617e+002
    endloop
  endfacet
  facet normal  2.429789e-001 -9.700316e-001  0.000000e+000
    outer loop
      vertex -5.074233e+001 -6.677618e+001  3.111617e+002
      vertex -5.074233e+001 -6.677618e+001  3.141617e+002
      vertex -5.151817e+001 -6.697051e+001  3.141617e+002
    endloop
  endfacet
  facet normal  2.429789e-001 -9.700316e-001  0.000000e+000
    outer loop
      vertex -5.074233e+001 -6.677618e+001  3.111617e+002
      vertex -5.151817e+001 -6.697051e+001  3.141617e+002
      vertex -5.151817e+001 -6.697051e+001  3.111617e+002
    endloop
  endfacet
  facet normal  3.368926e-001 -9.415430e-001  0.000000e+000
    outer loop
      vertex -5.151817e+001 -6.697051e+001  3.111617e+002
      vertex -5.151817e+001 -6.697051e+001  3.141617e+002
      vertex -5.227121e+001 -6.723996e+001  3.141617e+002
    endloop
  endfacet
  facet normal  3.368926e-001 -9.415430e-001  0.000000e+000
    outer loop
      vertex -5.151817e+001 -6.697051e+001  3.111617e+002
      vertex -5.227121e+001 -6.723996e+001  3.141617e+002
      vertex -5.227121e+001 -6.723996e+001  3.111617e+002
    endloop
  endfacet
  facet normal  4.275516e-001 -9.039909e-001  0.000000e+000
    outer loop
      vertex -5.227121e+001 -6.723996e+001  3.111617e+002
      vertex -5.227121e+001 -6.723996e+001  3.141617e+002
      vertex -5.299423e+001 -6.758192e+001  3.141617e+002
    endloop
  endfacet
  facet normal  4.275516e-001 -9.039909e-001  0.000000e+000
    outer loop
      vertex -5.227121e+001 -6.723996e+001  3.111617e+002
      vertex -5.299423e+001 -6.758192e+001  3.141617e+002
      vertex -5.299423e+001 -6.758192e+001  3.111617e+002
    endloop
  endfacet
  facet normal  5.141015e-001 -8.577294e-001  0.000000e+000
    outer loop
      vertex -5.299423e+001 -6.758192e+001  3.111617e+002
      vertex -5.299423e+001 -6.758192e+001  3.141617e+002
      vertex -5.368024e+001 -6.799310e+001  3.141617e+002
    endloop
  endfacet
  facet normal  5.141015e-001 -8.577294e-001  0.000000e+000
    outer loop
      vertex -5.299423e+001 -6.758192e+001  3.111617e+002
      vertex -5.368024e+001 -6.799310e+001  3.141617e+002
      vertex -5.368024e+001 -6.799310e+001  3.111617e+002
    endloop
  endfacet
  facet normal  5.957026e-001 -8.032050e-001  0.000000e+000
    outer loop
      vertex -5.368024e+001 -6.799310e+001  3.111617e+002
      vertex -5.368024e+001 -6.799310e+001  3.141617e+002
      vertex -5.432265e+001 -6.846954e+001  3.141617e+002
    endloop
  endfacet
  facet normal  5.957026e-001 -8.032050e-001  0.000000e+000
    outer loop
      vertex -5.368024e+001 -6.799310e+001  3.111617e+002
      vertex -5.432265e+001 -6.846954e+001  3.141617e+002
      vertex -5.432265e+001 -6.846954e+001  3.111617e+002
    endloop
  endfacet
  facet normal  6.715563e-001 -7.409536e-001  0.000000e+000
    outer loop
      vertex -5.432265e+001 -6.846954e+001  3.111617e+002
      vertex -5.432265e+001 -6.846954e+001  3.141617e+002
      vertex -5.491526e+001 -6.900665e+001  3.141617e+002
    endloop
  endfacet
  facet normal  6.715563e-001 -7.409536e-001  0.000000e+000
    outer loop
      vertex -5.432265e+001 -6.846954e+001  3.111617e+002
      vertex -5.491526e+001 -6.900665e+001  3.141617e+002
      vertex -5.491526e+001 -6.900665e+001  3.111617e+002
    endloop
  endfacet
  facet normal  7.409555e-001 -6.715541e-001  0.000000e+000
    outer loop
      vertex -5.491526e+001 -6.900665e+001  3.111617e+002
      vertex -5.491526e+001 -6.900665e+001  3.141617e+002
      vertex -5.545238e+001 -6.959927e+001  3.141617e+002
    endloop
  endfacet
  facet normal  7.409555e-001 -6.715541e-001  0.000000e+000
    outer loop
      vertex -5.491526e+001 -6.900665e+001  3.111617e+002
      vertex -5.545238e+001 -6.959927e+001  3.141617e+002
      vertex -5.545238e+001 -6.959927e+001  3.111617e+002
    endloop
  endfacet
  facet normal  8.032040e-001 -5.957041e-001  0.000000e+000
    outer loop
      vertex -5.545238e+001 -6.959927e+001  3.111617e+002
      vertex -5.545238e+001 -6.959927e+001  3.141617e+002
      vertex -5.592882e+001 -7.024168e+001  3.141617e+002
    endloop
  endfacet
  facet normal  8.032040e-001 -5.957041e-001  0.000000e+000
    outer loop
      vertex -5.545238e+001 -6.959927e+001  3.111617e+002
      vertex -5.592882e+001 -7.024168e+001  3.141617e+002
      vertex -5.592882e+001 -7.024168e+001  3.111617e+002
    endloop
  endfacet
  facet normal  8.577273e-001 -5.141050e-001  0.000000e+000
    outer loop
      vertex -5.592882e+001 -7.024168e+001  3.111617e+002
      vertex -5.592882e+001 -7.024168e+001  3.141617e+002
      vertex -5.634000e+001 -7.092769e+001  3.141617e+002
    endloop
  endfacet
  facet normal  8.577273e-001 -5.141050e-001  0.000000e+000
    outer loop
      vertex -5.592882e+001 -7.024168e+001  3.111617e+002
      vertex -5.634000e+001 -7.092769e+001  3.141617e+002
      vertex -5.634000e+001 -7.092769e+001  3.111617e+002
    endloop
  endfacet
  facet normal  9.039909e-001 -4.275516e-001  0.000000e+000
    outer loop
      vertex -5.634000e+001 -7.092769e+001  3.111617e+002
      vertex -5.634000e+001 -7.092769e+001  3.141617e+002
      vertex -5.668196e+001 -7.165070e+001  3.141617e+002
    endloop
  endfacet
  facet normal  9.039909e-001 -4.275516e-001  0.000000e+000
    outer loop
      vertex -5.634000e+001 -7.092769e+001  3.111617e+002
      vertex -5.668196e+001 -7.165070e+001  3.141617e+002
      vertex -5.668196e+001 -7.165070e+001  3.111617e+002
    endloop
  endfacet
  facet normal  9.415436e-001 -3.368911e-001  0.000000e+000
    outer loop
      vertex -5.668196e+001 -7.165070e+001  3.111617e+002
      vertex -5.668196e+001 -7.165070e+001  3.141617e+002
      vertex -5.695141e+001 -7.240376e+001  3.141617e+002
    endloop
  endfacet
  facet normal  9.415436e-001 -3.368911e-001  0.000000e+000
    outer loop
      vertex -5.668196e+001 -7.165070e+001  3.111617e+002
      vertex -5.695141e+001 -7.240376e+001  3.141617e+002
      vertex -5.695141e+001 -7.240376e+001  3.111617e+002
    endloop
  endfacet
  facet normal  9.700313e-001 -2.429800e-001  0.000000e+000
    outer loop
      vertex -5.695141e+001 -7.240376e+001  3.111617e+002
      vertex -5.695141e+001 -7.240376e+001  3.141617e+002
      vertex -5.714574e+001 -7.317959e+001  3.141617e+002
    endloop
  endfacet
  facet normal  9.700313e-001 -2.429800e-001  0.000000e+000
    outer loop
      vertex -5.695141e+001 -7.240376e+001  3.111617e+002
      vertex -5.714574e+001 -7.317959e+001  3.141617e+002
      vertex -5.714574e+001 -7.317959e+001  3.111617e+002
    endloop
  endfacet
  facet normal  9.891765e-001 -1.467305e-001  0.000000e+000
    outer loop
      vertex -5.714574e+001 -7.317959e+001  3.111617e+002
      vertex -5.714574e+001 -7.317959e+001  3.141617e+002
      vertex -5.726310e+001 -7.397073e+001  3.141617e+002
    endloop
  endfacet
  facet normal  9.891765e-001 -1.467305e-001  0.000000e+000
    outer loop
      vertex -5.714574e+001 -7.317959e+001  3.111617e+002
      vertex -5.726310e+001 -7.397073e+001  3.141617e+002
      vertex -5.726310e+001 -7.397073e+001  3.111617e+002
    endloop
  endfacet
  facet normal  9.987954e-001 -4.906885e-002  0.000000e+000
    outer loop
      vertex -5.726310e+001 -7.397073e+001  3.111617e+002
      vertex -5.726310e+001 -7.397073e+001  3.141617e+002
      vertex -5.730235e+001 -7.476958e+001  3.141617e+002
    endloop
  endfacet
  facet normal  9.987954e-001 -4.906885e-002  0.000000e+000
    outer loop
      vertex -5.726310e+001 -7.397073e+001  3.111617e+002
      vertex -5.730235e+001 -7.476958e+001  3.141617e+002
      vertex -5.730235e+001 -7.476958e+001  3.111617e+002
    endloop
  endfacet
  facet normal  0.000000e+000 -9.999999e-001  0.000000e+000
    outer loop
      vertex -1.872341e+001 -9.976958e+001  3.461617e+002
      vertex -1.465234e+001 -9.976958e+001  3.378481e+002
      vertex -1.165234e+001 -9.976958e+001  3.390907e+002
    endloop
  endfacet
  facet normal  0.000000e+000 -1.000000e+000  0.000000e+000
    outer loop
      vertex -1.165234e+001 -9.976958e+001  3.390907e+002
      vertex -1.465234e+001 -9.976958e+001  3.378481e+002
      vertex -1.465234e+001 -9.976958e+001  3.141617e+002
    endloop
  endfacet
  facet normal  0.000000e+000 -1.000000e+000  0.000000e+000
    outer loop
      vertex -1.165234e+001 -9.976958e+001  3.390907e+002
      vertex -1.465234e+001 -9.976958e+001  3.141617e+002
      vertex -1.165234e+001 -9.976958e+001  3.111617e+002
    endloop
  endfacet
  facet normal  0.000000e+000 -1.000000e+000  0.000000e+000
    outer loop
      vertex -1.165234e+001 -9.976958e+001  3.111617e+002
      vertex -1.465234e+001 -9.976958e+001  3.141617e+002
      vertex -8.365234e+001 -9.976958e+001  3.141617e+002
    endloop
  endfacet
  facet normal  0.000000e+000 -1.000000e+000  -0.000000e+000
    outer loop
      vertex -1.165234e+001 -9.976958e+001  3.111617e+002
      vertex -8.365234e+001 -9.976958e+001  3.141617e+002
      vertex -8.665234e+001 -9.976958e+001  3.111617e+002
    endloop
  endfacet
  facet normal  0.000000e+000 -1.000000e+000  -0.000000e+000
    outer loop
      vertex -1.465234e+001 -9.976958e+001  3.378481e+002
      vertex -1.872341e+001 -9.976958e+001  3.461617e+002
      vertex -1.996605e+001 -9.976958e+001  3.431617e+002
    endloop
  endfacet
  facet normal  0.000000e+000 -1.000000e+000  0.000000e+000
    outer loop
      vertex -1.996605e+001 -9.976958e+001  3.431617e+002
      vertex -1.872341e+001 -9.976958e+001  3.461617e+002
      vertex -7.958128e+001 -9.976958e+001  3.461617e+002
    endloop
  endfacet
  facet normal  0.000000e+000 -1.000000e+000  0.000000e+000
    outer loop
      vertex -1.996605e+001 -9.976958e+001  3.431617e+002
      vertex -7.958128e+001 -9.976958e+001  3.461617e+002
      vertex -7.833864e+001 -9.976958e+001  3.431617e+002
    endloop
  endfacet
  facet normal  -0.000000e+000 -9.999999e-001  0.000000e+000
    outer loop
      vertex -7.833864e+001 -9.976958e+001  3.431617e+002
      vertex -7.958128e+001 -9.976958e+001  3.461617e+002
      vertex -8.665234e+001 -9.976958e+001  3.390907e+002
    endloop
  endfacet
  facet normal  0.000000e+000 -1.000000e+000  0.000000e+000
    outer loop
      vertex -7.833864e+001 -9.976958e+001  3.431617e+002
      vertex -8.665234e+001 -9.976958e+001  3.390907e+002
      vertex -8.365234e+001 -9.976958e+001  3.378481e+002
    endloop
  endfacet
  facet normal  -0.000000e+000 -1.000000e+000  0.000000e+000
    outer loop
      vertex -8.365234e+001 -9.976958e+001  3.378481e+002
      vertex -8.665234e+001 -9.976958e+001  3.390907e+002
      vertex -8.665234e+001 -9.976958e+001  3.111617e+002
    endloop
  endfacet
  facet normal  0.000000e+000 -1.000000e+000  0.000000e+000
    outer loop
      vertex -8.365234e+001 -9.976958e+001  3.378481e+002
      vertex -8.665234e+001 -9.976958e+001  3.111617e+002
      vertex -8.365234e+001 -9.976958e+001  3.141617e+002
    endloop
  endfacet
  facet normal  0.000000e+000  1.000000e+000  0.000000e+000
    outer loop
      vertex -7.958128e+001 -4.776958e+001  3.461617e+002
      vertex -1.872341e+001 -4.776958e+001  3.461617e+002
      vertex -8.665234e+001 -4.776958e+001  3.390907e+002
    endloop
  endfacet
  facet normal  0.000000e+000  1.000000e+000  0.000000e+000
    outer loop
      vertex -8.665234e+001 -4.776958e+001  3.390907e+002
      vertex -1.872341e+001 -4.776958e+001  3.461617e+002
      vertex -1.165234e+001 -4.776958e+001  3.390907e+002
    endloop
  endfacet
  facet normal  0.000000e+000  1.000000e+000  0.000000e+000
    outer loop
      vertex -8.665234e+001 -4.776958e+001  3.390907e+002
      vertex -1.165234e+001 -4.776958e+001  3.390907e+002
      vertex -8.665234e+001 -4.776958e+001  3.111617e+002
    endloop
  endfacet
  facet normal  0.000000e+000  1.000000e+000  0.000000e+000
    outer loop
      vertex -8.665234e+001 -4.776958e+001  3.111617e+002
      vertex -1.165234e+001 -4.776958e+001  3.390907e+002
      vertex -1.165234e+001 -4.776958e+001  3.111617e+002
    endloop
  endfacet
  facet normal  -0.000000e+000  0.000000e+000  1.000000e+000
    outer loop
      vertex -1.872341e+001 -4.776958e+001  3.461617e+002
      vertex -7.958128e+001 -4.776958e+001  3.461617e+002
      vertex -1.872341e+001 -9.976958e+001  3.461617e+002
    endloop
  endfacet
  facet normal  0.000000e+000  0.000000e+000  1.000000e+000
    outer loop
      vertex -1.872341e+001 -9.976958e+001  3.461617e+002
      vertex -7.958128e+001 -4.776958e+001  3.461617e+002
      vertex -7.958128e+001 -9.976958e+001  3.461617e+002
    endloop
  endfacet
  facet normal  7.071056e-001  0.000000e+000  7.071080e-001
    outer loop
      vertex -1.165234e+001 -9.976958e+001  3.390907e+002
      vertex -1.165234e+001 -4.776958e+001  3.390907e+002
      vertex -1.872341e+001 -9.976958e+001  3.461617e+002
    endloop
  endfacet
  facet normal  7.071056e-001  -0.000000e+000  7.071080e-001
    outer loop
      vertex -1.872341e+001 -9.976958e+001  3.461617e+002
      vertex -1.165234e+001 -4.776958e+001  3.390907e+002
      vertex -1.872341e+001 -4.776958e+001  3.461617e+002
    endloop
  endfacet
  facet normal -7.071056e-001  0.000000e+000  7.071080e-001
    outer loop
      vertex -7.958128e+001 -9.976958e+001  3.461617e+002
      vertex -7.958128e+001 -4.776958e+001  3.461617e+002
      vertex -8.665234e+001 -9.976958e+001  3.390907e+002
    endloop
  endfacet
  facet normal -7.071056e-001  0.000000e+000  7.071080e-001
    outer loop
      vertex -8.665234e+001 -9.976958e+001  3.390907e+002
      vertex -7.958128e+001 -4.776958e+001  3.461617e+002
      vertex -8.665234e+001 -4.776958e+001  3.390907e+002
    endloop
  endfacet
  facet normal  1.000000e+000  0.000000e+000  0.000000e+000
    outer loop
      vertex -1.165234e+001 -9.976958e+001  3.111617e+002
      vertex -1.165234e+001 -4.776958e+001  3.111617e+002
      vertex -1.165234e+001 -9.976958e+001  3.390907e+002
    endloop
  endfacet
  facet normal  1.000000e+000  -0.000000e+000  0.000000e+000
    outer loop
      vertex -1.165234e+001 -9.976958e+001  3.390907e+002
      vertex -1.165234e+001 -4.776958e+001  3.111617e+002
      vertex -1.165234e+001 -4.776958e+001  3.390907e+002
    endloop
  endfacet
  facet normal -1.000000e+000  -0.000000e+000  0.000000e+000
    outer loop
      vertex -8.665234e+001 -9.976958e+001  3.390907e+002
      vertex -8.665234e+001 -4.776958e+001  3.390907e+002
      vertex -8.665234e+001 -9.976958e+001  3.111617e+002
    endloop
  endfacet
  facet normal -1.000000e+000  0.000000e+000  0.000000e+000
    outer loop
      vertex -8.665234e+001 -9.976958e+001  3.111617e+002
      vertex -8.665234e+001 -4.776958e+001  3.390907e+002
      vertex -8.665234e+001 -4.776958e+001  3.111617e+002
    endloop
  endfacet
  facet normal  0.000000e+000 -1.000000e+000  0.000000e+000
    outer loop
      vertex -7.833864e+001 -4.976958e+001  3.431617e+002
      vertex -8.365234e+001 -4.976958e+001  3.378481e+002
      vertex -1.996605e+001 -4.976958e+001  3.431617e+002
    endloop
  endfacet
  facet normal  0.000000e+000 -9.999999e-001  -0.000000e+000
    outer loop
      vertex -1.996605e+001 -4.976958e+001  3.431617e+002
      vertex -8.365234e+001 -4.976958e+001  3.378481e+002
      vertex -1.465234e+001 -4.976958e+001  3.378481e+002
    endloop
  endfacet
  facet normal  0.000000e+000 -1.000000e+000  0.000000e+000
    outer loop
      vertex -8.365234e+001 -4.976958e+001  3.378481e+002
      vertex -8.365234e+001 -4.976958e+001  3.141617e+002
      vertex -1.465234e+001 -4.976958e+001  3.378481e+002
    endloop
  endfacet
  facet normal  0.000000e+000 -1.000000e+000  -0.000000e+000
    outer loop
      vertex -1.465234e+001 -4.976958e+001  3.378481e+002
      vertex -8.365234e+001 -4.976958e+001  3.141617e+002
      vertex -1.465234e+001 -4.976958e+001  3.141617e+002
    endloop
  endfacet
  facet normal -1.000000e+000  0.000000e+000  0.000000e+000
    outer loop
      vertex -1.465234e+001 -9.976958e+001  3.141617e+002
      vertex -1.465234e+001 -9.976958e+001  3.378481e+002
      vertex -1.465234e+001 -4.976958e+001  3.141617e+002
    endloop
  endfacet
  facet normal -1.000000e+000  0.000000e+000  0.000000e+000
    outer loop
      vertex -1.465234e+001 -4.976958e+001  3.141617e+002
      vertex -1.465234e+001 -9.976958e+001  3.378481e+002
      vertex -1.465234e+001 -4.976958e+001  3.378481e+002
    endloop
  endfacet
  facet normal  1.000000e+000  0.000000e+000  0.000000e+000
    outer loop
      vertex -8.365234e+001 -9.976958e+001  3.378481e+002
      vertex -8.365234e+001 -9.976958e+001  3.141617e+002
      vertex -8.365234e+001 -4.976958e+001  3.378481e+002
    endloop
  endfacet
  facet normal  1.000000e+000  0.000000e+000  0.000000e+000
    outer loop
      vertex -8.365234e+001 -4.976958e+001  3.378481e+002
      vertex -8.365234e+001 -9.976958e+001  3.141617e+002
      vertex -8.365234e+001 -4.976958e+001  3.141617e+002
    endloop
  endfacet
  facet normal  7.071058e-001  0.000000e+000 -7.071078e-001
    outer loop
      vertex -7.833864e+001 -9.976958e+001  3.431617e+002
      vertex -8.365234e+001 -9.976958e+001  3.378481e+002
      vertex -7.833864e+001 -4.976958e+001  3.431617e+002
    endloop
  endfacet
  facet normal  7.071058e-001  0.000000e+000 -7.071078e-001
    outer loop
      vertex -7.833864e+001 -4.976958e+001  3.431617e+002
      vertex -8.365234e+001 -9.976958e+001  3.378481e+002
      vertex -8.365234e+001 -4.976958e+001  3.378481e+002
    endloop
  endfacet
  facet normal  0.000000e+000  0.000000e+000 -1.000000e+000
    outer loop
      vertex -1.996605e+001 -4.976958e+001  3.431617e+002
      vertex -1.996605e+001 -9.976958e+001  3.431617e+002
      vertex -7.833864e+001 -4.976958e+001  3.431617e+002
    endloop
  endfacet
  facet normal  0.000000e+000  0.000000e+000 -1.000000e+000
    outer loop
      vertex -7.833864e+001 -4.976958e+001  3.431617e+002
      vertex -1.996605e+001 -9.976958e+001  3.431617e+002
      vertex -7.833864e+001 -9.976958e+001  3.431617e+002
    endloop
  endfacet
  facet normal -7.071056e-001  0.000000e+000 -7.071081e-001
    outer loop
      vertex -1.465234e+001 -9.976958e+001  3.378481e+002
      vertex -1.996605e+001 -9.976958e+001  3.431617e+002
      vertex -1.465234e+001 -4.976958e+001  3.378481e+002
    endloop
  endfacet
  facet normal -7.071056e-001  0.000000e+000 -7.071081e-001
    outer loop
      vertex -1.465234e+001 -4.976958e+001  3.378481e+002
      vertex -1.996605e+001 -9.976958e+001  3.431617e+002
      vertex -1.996605e+001 -4.976958e+001  3.431617e+002
    endloop
  endfacet
endsolid CATIA STL
